<?xml version="1.0" encoding="utf-8"?>
<svg version="1.1" id="logo_idegeo" xmlns="http://www.w3.org/2000/svg" xmlns:xlink="http://www.w3.org/1999/xlink" x="0px" y="0px" viewBox="0 0 100 32" style="enable-background:new 0 0 100 32;" xml:space="preserve">
<style type="text/css">
	.st0{opacity:1.00;fill:#FFFFFF;fill-opacity:1.00;}
</style>
<path class="st0" d="M3.19,1.336c0.619,0,1.141,0.214,1.568,0.64c0.426,0.427,0.64,0.95,0.64,1.568c0,0.619-0.213,1.142-0.64,1.568
	c-0.427,0.427-0.95,0.64-1.568,0.64S2.049,5.54,1.622,5.113s-0.64-0.949-0.64-1.568c0-0.618,0.213-1.141,0.64-1.568
	C2.049,1.55,2.571,1.336,3.19,1.336z M1.366,10.232c0-0.597,0.17-1.029,0.512-1.296c0.341-0.267,0.821-0.4,1.44-0.4
	c0.384,0,0.736,0.048,1.056,0.144c0.32,0.096,0.533,0.166,0.64,0.208v15.712H1.366V10.232z M21.718,2.712
	c0-0.576,0.165-1.002,0.496-1.28c0.331-0.277,0.805-0.416,1.424-0.416c0.384,0,0.736,0.048,1.056,0.144
	c0.32,0.096,0.533,0.166,0.64,0.208v14.432c0,1.557-0.219,2.911-0.656,4.063c-0.438,1.152-1.04,2.112-1.808,2.88
	c-0.768,0.769-1.675,1.345-2.72,1.729c-1.045,0.384-2.187,0.576-3.424,0.576c-1.259,0-2.416-0.214-3.472-0.641
	c-1.056-0.426-1.968-1.013-2.736-1.76S9.147,21.006,8.71,19.96c-0.438-1.045-0.656-2.175-0.656-3.392
	c0-1.237,0.208-2.373,0.624-3.408c0.416-1.035,0.992-1.931,1.728-2.688c0.736-0.757,1.6-1.344,2.592-1.76
	c0.992-0.416,2.074-0.624,3.248-0.624c1.237,0,2.325,0.24,3.264,0.72c0.938,0.48,1.675,1.062,2.208,1.744V2.712z M21.718,16.568
	c0-0.725-0.123-1.408-0.368-2.048c-0.246-0.64-0.582-1.194-1.008-1.664c-0.427-0.469-0.944-0.837-1.552-1.104
	c-0.608-0.266-1.275-0.4-2-0.4c-0.747,0-1.419,0.134-2.016,0.4c-0.598,0.267-1.115,0.63-1.552,1.088
	c-0.438,0.459-0.773,1.008-1.008,1.648c-0.235,0.64-0.352,1.333-0.352,2.08c0,0.747,0.117,1.435,0.352,2.064
	c0.234,0.629,0.57,1.173,1.008,1.632c0.437,0.459,0.955,0.821,1.552,1.088c0.597,0.267,1.269,0.399,2.016,0.399
	c0.725,0,1.392-0.128,2-0.384s1.125-0.607,1.552-1.056s0.763-0.992,1.008-1.632C21.595,18.04,21.718,17.336,21.718,16.568z
	 M42.774,23.417c-0.172,0.106-0.438,0.256-0.801,0.447c-0.363,0.192-0.816,0.374-1.359,0.544c-0.545,0.171-1.174,0.32-1.889,0.448
	s-1.498,0.192-2.352,0.192c-1.195,0-2.311-0.182-3.344-0.544c-1.035-0.363-1.941-0.901-2.721-1.616s-1.392-1.589-1.84-2.624
	c-0.448-1.035-0.672-2.225-0.672-3.568c0-1.28,0.218-2.448,0.656-3.504c0.437-1.056,1.045-1.962,1.825-2.72
	c0.777-0.757,1.695-1.344,2.752-1.76c1.055-0.416,2.213-0.624,3.471-0.624c1.109,0,2.092,0.144,2.945,0.432
	c0.852,0.288,1.572,0.672,2.16,1.152c0.586,0.48,1.029,1.04,1.328,1.68c0.297,0.64,0.447,1.323,0.447,2.048
	c0,0.747-0.139,1.424-0.416,2.032S42.198,16.563,41.493,17c-0.703,0.438-1.652,0.779-2.848,1.024
	c-1.195,0.245-2.709,0.368-4.543,0.368c-0.428,0-0.828-0.005-1.201-0.017c-0.373-0.01-0.773-0.026-1.199-0.048
	c0.17,1.088,0.697,1.968,1.584,2.641c0.885,0.672,2.148,1.008,3.791,1.008c0.555,0,1.066-0.043,1.537-0.128
	c0.469-0.085,0.891-0.192,1.264-0.32s0.693-0.256,0.959-0.384c0.268-0.128,0.465-0.225,0.594-0.288L42.774,23.417z M31.542,15.833
	c0.49,0.021,0.959,0.032,1.408,0.032c0.447,0,0.896,0,1.344,0c1.172,0,2.123-0.075,2.848-0.224c0.725-0.149,1.291-0.341,1.695-0.576
	c0.406-0.234,0.674-0.501,0.801-0.8c0.129-0.298,0.191-0.608,0.191-0.928c0-0.811-0.324-1.418-0.975-1.824
	c-0.652-0.405-1.457-0.608-2.416-0.608c-0.791,0-1.484,0.139-2.08,0.416c-0.598,0.277-1.1,0.646-1.504,1.104
	c-0.406,0.459-0.721,0.987-0.945,1.584C31.687,14.606,31.563,15.214,31.542,15.833z M62.165,21.88c0,1.708-0.224,3.163-0.672,4.369
	c-0.447,1.204-1.071,2.181-1.872,2.928c-0.8,0.746-1.749,1.29-2.848,1.632c-1.099,0.341-2.288,0.512-3.568,0.512
	c-1.621,0-2.911-0.133-3.872-0.399c-0.96-0.268-1.653-0.485-2.079-0.656l0.575-1.729c0.128,0.043,0.336,0.123,0.624,0.24
	s0.656,0.229,1.104,0.336s0.96,0.203,1.536,0.288s1.205,0.128,1.888,0.128c0.768,0,1.568-0.08,2.4-0.239
	c0.832-0.16,1.594-0.491,2.288-0.992c0.692-0.502,1.269-1.216,1.728-2.145c0.459-0.928,0.688-2.17,0.688-3.728v-0.769
	c-0.684,1.109-1.553,1.952-2.608,2.528s-2.288,0.864-3.696,0.864c-1.323,0-2.507-0.214-3.552-0.641
	c-1.046-0.426-1.926-1.019-2.64-1.775c-0.716-0.758-1.265-1.643-1.648-2.656s-0.576-2.106-0.576-3.28
	c0-1.152,0.208-2.235,0.624-3.248s0.997-1.898,1.744-2.656C48.48,10.036,49.37,9.438,50.405,9c1.035-0.437,2.182-0.656,3.44-0.656
	c1.066,0,2.059,0.155,2.976,0.464c0.917,0.31,1.729,0.752,2.433,1.328c0.703,0.576,1.29,1.28,1.76,2.112
	c0.469,0.832,0.8,1.771,0.992,2.816c0.042,0.299,0.08,0.646,0.111,1.04c0.032,0.395,0.048,0.848,0.048,1.36V21.88z M47.638,16.697
	c0,0.96,0.144,1.845,0.432,2.656s0.704,1.504,1.248,2.08s1.194,1.023,1.952,1.344c0.757,0.32,1.616,0.48,2.576,0.48
	c0.938,0,1.786-0.171,2.544-0.513c0.757-0.341,1.408-0.805,1.952-1.392s0.96-1.28,1.248-2.08s0.432-1.669,0.432-2.608
	c0-0.938-0.149-1.802-0.448-2.592c-0.299-0.789-0.715-1.472-1.248-2.048c-0.533-0.576-1.184-1.029-1.952-1.36
	c-0.768-0.331-1.61-0.496-2.527-0.496c-0.96,0-1.819,0.171-2.576,0.512c-0.758,0.341-1.408,0.806-1.952,1.392
	c-0.544,0.587-0.96,1.28-1.248,2.08C47.781,14.953,47.638,15.801,47.638,16.697z M67.158,18.072
	c0.234,1.644,0.917,2.912,2.048,3.808c1.131,0.896,2.624,1.345,4.479,1.345c1.089,0,2.011-0.154,2.769-0.464
	c0.757-0.309,1.339-0.581,1.744-0.816l0.928,1.536c-0.171,0.107-0.427,0.251-0.768,0.432c-0.342,0.182-0.758,0.358-1.248,0.528
	c-0.491,0.171-1.046,0.314-1.664,0.433c-0.619,0.116-1.302,0.176-2.048,0.176c-1.174,0-2.278-0.176-3.313-0.528
	c-1.035-0.352-1.941-0.869-2.72-1.552c-0.779-0.683-1.393-1.525-1.84-2.528c-0.448-1.003-0.673-2.165-0.673-3.488
	c0-1.28,0.214-2.448,0.641-3.504c0.427-1.056,1.023-1.962,1.792-2.72c0.768-0.757,1.68-1.344,2.736-1.76
	c1.056-0.416,2.213-0.624,3.472-0.624c1.066,0,2,0.123,2.8,0.368c0.8,0.246,1.467,0.592,2,1.04c0.533,0.448,0.933,0.976,1.2,1.584
	c0.267,0.608,0.399,1.264,0.399,1.968s-0.144,1.35-0.432,1.936c-0.288,0.587-0.779,1.099-1.472,1.536
	c-0.693,0.438-1.622,0.779-2.784,1.024c-1.163,0.245-2.63,0.367-4.4,0.367c-0.683,0-1.307-0.005-1.872-0.016
	S67.776,18.115,67.158,18.072z M67.094,16.409c0.576,0.043,1.137,0.069,1.681,0.08s1.114,0.016,1.712,0.016
	c1.45,0,2.645-0.09,3.584-0.272c0.938-0.181,1.68-0.421,2.224-0.72s0.923-0.65,1.136-1.056c0.213-0.405,0.32-0.832,0.32-1.28
	c0-0.597-0.123-1.099-0.368-1.504c-0.245-0.405-0.576-0.73-0.992-0.976s-0.885-0.421-1.407-0.528
	c-0.523-0.106-1.062-0.16-1.616-0.16c-1.003,0-1.889,0.176-2.656,0.528s-1.413,0.827-1.936,1.424
	c-0.523,0.598-0.929,1.28-1.217,2.048C67.27,14.776,67.115,15.577,67.094,16.409z M99.061,16.697c0,1.152-0.213,2.235-0.64,3.248
	c-0.427,1.014-1.019,1.899-1.776,2.656c-0.757,0.758-1.658,1.355-2.704,1.792c-1.045,0.437-2.187,0.656-3.424,0.656
	s-2.379-0.22-3.424-0.656s-1.947-1.034-2.704-1.792c-0.757-0.757-1.35-1.643-1.775-2.656c-0.428-1.013-0.641-2.096-0.641-3.248
	c0-1.173,0.213-2.267,0.641-3.28c0.426-1.013,1.019-1.898,1.775-2.656s1.659-1.349,2.704-1.776c1.045-0.426,2.187-0.64,3.424-0.64
	s2.379,0.213,3.424,0.64c1.046,0.427,1.947,1.019,2.704,1.776c0.758,0.757,1.35,1.643,1.776,2.656
	C98.848,14.43,99.061,15.523,99.061,16.697z M96.789,16.697c0-0.917-0.149-1.776-0.448-2.576s-0.726-1.499-1.28-2.096
	c-0.555-0.597-1.216-1.061-1.983-1.392c-0.769-0.331-1.622-0.496-2.561-0.496s-1.792,0.166-2.56,0.496
	c-0.769,0.331-1.43,0.795-1.984,1.392c-0.555,0.598-0.981,1.296-1.279,2.096c-0.3,0.8-0.448,1.659-0.448,2.576
	c0,0.896,0.154,1.744,0.464,2.543c0.309,0.8,0.736,1.493,1.28,2.08s1.199,1.051,1.968,1.393c0.768,0.341,1.621,0.512,2.56,0.512
	s1.792-0.171,2.561-0.512c0.768-0.342,1.429-0.806,1.983-1.393s0.981-1.28,1.28-2.08S96.789,17.593,96.789,16.697z"/>
</svg>
