<?xml version="1.0" encoding="utf-8"?>
<svg version="1.1" id="image_640x360" xmlns="http://www.w3.org/2000/svg" xmlns:xlink="http://www.w3.org/1999/xlink" x="0px" y="0px" viewBox="0 0 640 360" style="enable-background:new 0 0 640 360;" xml:space="preserve">
<style type="text/css">
	.st0{opacity:1.00;fill:#FFFFFF;fill-opacity:1.00;}
	.st1{opacity:1.00;fill:#000000;fill-opacity:0.12;}
	.st2{opacity:1.00;fill:#EDD11D;fill-opacity:1.00;}
	.st3{opacity:1.00;font-family:"Roboto",sans-serif;font-size:24px;font-weight:400;fill:#000000;fill-opacity:1.00;}
</style>
<rect class="st0" width="640" height="360"/>
<path class="st1" d="M30,354H6l0-24H0l0,30h30L30,354z M610,360h30v-30h-6v24h-24V360z M610,6l24,0v24h6V0l-30,0V6z M30,6H6v24H0V0h30V6z"/>
<path class="st2" d="M167.204,131.608c2.018,0,3.723,0.698,5.117,2.089c1.391,1.394,2.087,3.099,2.087,5.115
	c0,2.02-0.696,3.725-2.087,5.117c-1.394,1.392-3.099,2.087-5.117,2.087c-2.018,0-3.723-0.695-5.115-2.087S160,140.832,160,138.812
	c0-2.017,0.696-3.721,2.089-5.115C163.481,132.305,165.186,131.608,167.204,131.608z M161.254,160.633
	c0-1.947,0.556-3.357,1.67-4.228c1.114-0.87,2.68-1.305,4.698-1.305c1.254,0,2.402,0.156,3.446,0.47
	c1.045,0.312,1.74,0.54,2.089,0.679v51.263h-11.902V160.633z M227.655,136.097c0-1.878,0.538-3.271,1.619-4.176
	c1.079-0.903,2.627-1.357,4.646-1.357c1.254,0,2.402,0.156,3.446,0.47c1.043,0.312,1.74,0.54,2.089,0.679V178.8
	c0,5.08-0.715,9.498-2.141,13.258c-1.427,3.76-3.393,6.892-5.898,9.396c-2.506,2.508-5.466,4.387-8.875,5.64
	c-3.411,1.252-7.136,1.88-11.171,1.88c-4.109,0-7.883-0.698-11.329-2.09c-3.446-1.389-6.42-3.304-8.926-5.742
	c-2.506-2.437-4.473-5.359-5.899-8.772c-1.427-3.409-2.141-7.097-2.141-11.066c0-4.035,0.679-7.741,2.036-11.118
	c1.357-3.376,3.237-6.299,5.638-8.77c2.402-2.469,5.221-4.386,8.458-5.743c3.236-1.357,6.768-2.036,10.597-2.036
	c4.035,0,7.585,0.784,10.648,2.35c3.062,1.566,5.464,3.463,7.204,5.691V136.097z M227.655,181.305c0-2.364-0.401-4.593-1.2-6.682
	c-0.801-2.089-1.897-3.897-3.29-5.429c-1.392-1.529-3.079-2.731-5.063-3.602c-1.983-0.868-4.161-1.305-6.525-1.305
	c-2.437,0-4.63,0.437-6.578,1.305c-1.95,0.871-3.639,2.055-5.064,3.551c-1.427,1.498-2.523,3.288-3.288,5.377
	c-0.766,2.087-1.149,4.351-1.149,6.785c0,2.437,0.382,4.681,1.149,6.736c0.765,2.052,1.861,3.827,3.288,5.324
	c1.426,1.498,3.115,2.68,5.064,3.549c1.948,0.87,4.14,1.303,6.578,1.303c2.364,0,4.542-0.417,6.525-1.252
	c1.983-0.835,3.671-1.982,5.063-3.444s2.488-3.237,3.29-5.324C227.253,186.106,227.655,183.811,227.655,181.305z M296.356,203.65
	c-0.561,0.347-1.427,0.835-2.613,1.459c-1.185,0.628-2.664,1.22-4.435,1.775c-1.778,0.558-3.83,1.045-6.162,1.462
	c-2.332,0.417-4.888,0.628-7.672,0.628c-3.9,0-7.539-0.593-10.91-1.775c-3.377-1.185-6.334-2.941-8.877-5.273
	c-2.543-2.332-4.54-5.184-6.003-8.561c-1.461-3.377-2.192-7.258-2.192-11.641c0-4.177,0.712-7.988,2.14-11.434
	c1.426-3.444,3.411-6.403,5.953-8.874c2.536-2.469,5.531-4.386,8.979-5.743c3.441-1.357,7.22-2.036,11.324-2.036
	c3.62,0,6.825,0.47,9.61,1.41c2.778,0.94,5.13,2.192,7.048,3.758c1.912,1.566,3.358,3.393,4.333,5.482
	c0.969,2.089,1.459,4.317,1.459,6.682c0,2.437-0.452,4.647-1.357,6.631c-0.905,1.983-2.504,3.69-4.805,5.115
	c-2.294,1.427-5.391,2.543-9.291,3.341c-3.9,0.8-8.839,1.201-14.822,1.201c-1.396,0-2.702-0.016-3.919-0.054
	c-1.217-0.032-2.523-0.086-3.913-0.156c0.554,3.549,2.275,6.42,5.168,8.616c2.887,2.192,7.01,3.288,12.369,3.288
	c1.81,0,3.479-0.14,5.015-0.417c1.529-0.277,2.906-0.628,4.123-1.045c1.217-0.417,2.262-0.835,3.129-1.252
	c0.873-0.417,1.517-0.733,1.937-0.94L296.356,203.65z M259.708,178.904c1.599,0.07,3.129,0.105,4.595,0.105c1.459,0,2.925,0,4.384,0
	c3.823,0,6.927-0.244,9.291-0.731c2.364-0.486,4.212-1.112,5.531-1.88c1.325-0.765,2.198-1.635,2.613-2.61
	c0.421-0.973,0.624-1.983,0.624-3.029c0-2.645-1.058-4.628-3.18-5.95c-2.128-1.322-4.754-1.983-7.883-1.983
	c-2.581,0-4.843,0.452-6.787,1.357c-1.95,0.905-3.588,2.106-4.907,3.602c-1.325,1.498-2.351,3.22-3.084,5.168
	C260.18,174.902,259.778,176.885,259.708,178.904z M359.621,198.635c0,5.573-0.73,10.32-2.192,14.255
	c-1.459,3.929-3.495,7.115-6.108,9.552c-2.61,2.434-5.707,4.209-9.291,5.324c-3.584,1.112-7.465,1.67-11.642,1.67
	c-5.289,0-9.498-0.433-12.633-1.303c-3.132-0.873-5.394-1.584-6.783-2.141l1.877-5.64c0.417,0.14,1.096,0.401,2.036,0.784
	c0.94,0.382,2.141,0.749,3.604,1.096c1.462,0.347,3.132,0.663,5.012,0.94c1.88,0.277,3.932,0.417,6.159,0.417
	c2.504,0,5.117-0.261,7.832-0.781c2.715-0.523,5.2-1.603,7.465-3.237c2.259-1.638,4.139-3.967,5.636-6.997
	c1.497-3.027,2.246-7.08,2.246-12.162v-2.508c-2.23,3.62-5.066,6.369-8.51,8.249s-7.465,2.82-12.06,2.82
	c-4.317,0-8.179-0.698-11.588-2.09c-3.412-1.389-6.283-3.323-8.612-5.793c-2.336-2.473-4.126-5.359-5.378-8.667
	c-1.252-3.307-1.88-6.873-1.88-10.701c0-3.76,0.679-7.292,2.036-10.597c1.357-3.306,3.253-6.194,5.691-8.667
	c2.437-2.469,5.34-4.419,8.717-5.847c3.377-1.426,7.118-2.14,11.225-2.14c3.479,0,6.717,0.505,9.708,1.513
	c2.992,1.01,5.64,2.453,7.937,4.333c2.294,1.878,4.209,4.176,5.742,6.89c1.529,2.715,2.609,5.778,3.237,9.187
	c0.137,0.977,0.261,2.106,0.363,3.393c0.105,1.289,0.156,2.767,0.156,4.437V198.635z M312.223,181.724
	c0,3.132,0.468,6.02,1.408,8.665c0.94,2.645,2.297,4.907,4.072,6.787c1.775,1.88,3.897,3.339,6.369,4.384
	c2.469,1.045,5.273,1.568,8.405,1.568c3.062,0,5.828-0.558,8.3-1.673c2.469-1.112,4.595-2.625,6.369-4.54
	c1.775-1.915,3.132-4.177,4.072-6.787c0.94-2.61,1.408-5.445,1.408-8.509c0-3.062-0.487-5.88-1.462-8.456
	c-0.975-2.574-2.332-4.803-4.072-6.683c-1.74-1.878-3.862-3.357-6.369-4.437c-2.504-1.079-5.254-1.619-8.246-1.619
	c-3.132,0-5.936,0.558-8.405,1.671c-2.473,1.114-4.595,2.629-6.369,4.542c-1.775,1.915-3.132,4.176-4.072,6.785
	C312.692,176.033,312.223,178.8,312.223,181.724z M375.913,186.212c0.765,5.362,2.992,9.501,6.682,12.423
	c3.69,2.925,8.561,4.387,14.615,4.387c3.553,0,6.56-0.503,9.033-1.513c2.469-1.007,4.368-1.896,5.691-2.664l3.027,5.012
	c-0.558,0.35-1.392,0.819-2.504,1.408c-1.115,0.593-2.473,1.169-4.072,1.724c-1.603,0.558-3.412,1.026-5.429,1.411
	c-2.02,0.379-4.247,0.574-6.681,0.574c-3.83,0-7.433-0.574-10.808-1.724c-3.377-1.147-6.334-2.836-8.874-5.063
	c-2.543-2.227-4.544-4.977-6.003-8.249c-1.462-3.272-2.195-7.064-2.195-11.38c0-4.177,0.698-7.988,2.09-11.432
	c1.392-3.446,3.339-6.403,5.847-8.875c2.504-2.469,5.48-4.384,8.928-5.742c3.444-1.357,7.22-2.036,11.327-2.036
	c3.479,0,6.525,0.401,9.135,1.2c2.609,0.801,4.786,1.932,6.525,3.393c1.74,1.462,3.043,3.185,3.916,5.168
	c0.87,1.985,1.303,4.125,1.303,6.422c0,2.297-0.468,4.403-1.408,6.317c-0.94,1.915-2.543,3.584-4.802,5.01
	c-2.262,1.427-5.292,2.543-9.084,3.342c-3.795,0.8-8.581,1.198-14.357,1.198c-2.227,0-4.263-0.016-6.108-0.051
	C379.86,186.438,377.929,186.352,375.913,186.212z M375.702,180.784c1.88,0.14,3.709,0.226,5.483,0.261
	c1.775,0.035,3.635,0.051,5.585,0.051c4.732,0,8.628-0.295,11.693-0.887c3.062-0.589,5.48-1.373,7.255-2.348
	c1.775-0.975,3.011-2.122,3.706-3.446c0.695-1.321,1.045-2.715,1.045-4.176c0-1.948-0.401-3.584-1.201-4.908
	c-0.8-1.321-1.88-2.383-3.237-3.183s-2.887-1.375-4.591-1.724c-1.708-0.347-3.463-0.521-5.273-0.521
	c-3.272,0-6.162,0.574-8.667,1.722c-2.504,1.149-4.61,2.699-6.315,4.646c-1.708,1.95-3.03,4.177-3.97,6.683
	C376.276,175.458,375.772,178.069,375.702,180.784z M480,181.724c0,3.758-0.695,7.292-2.087,10.596
	c-1.392,3.307-3.323,6.197-5.796,8.667c-2.469,2.473-5.41,4.422-8.823,5.847c-3.409,1.424-7.134,2.141-11.171,2.141
	c-4.037,0-7.762-0.717-11.171-2.141c-3.409-1.424-6.353-3.374-8.823-5.847c-2.469-2.469-4.403-5.359-5.793-8.667
	c-1.396-3.304-2.09-6.838-2.09-10.596c0-3.828,0.695-7.395,2.09-10.702c1.389-3.304,3.323-6.194,5.793-8.665
	c2.469-2.471,5.413-4.402,8.823-5.796c3.409-1.391,7.134-2.087,11.171-2.087c4.037,0,7.762,0.696,11.171,2.087
	c3.412,1.394,6.353,3.325,8.823,5.796c2.473,2.471,4.403,5.361,5.796,8.665C479.305,174.329,480,177.896,480,181.724z
	 M472.589,181.724c0-2.992-0.488-5.796-1.462-8.405s-2.367-4.889-4.177-6.839c-1.81-1.947-3.967-3.462-6.471-4.54
	c-2.508-1.079-5.292-1.619-8.354-1.619c-3.062,0-5.847,0.54-8.351,1.619c-2.508,1.079-4.665,2.594-6.474,4.54
	c-1.81,1.95-3.202,4.23-4.174,6.839c-0.978,2.61-1.462,5.413-1.462,8.405c0,2.923,0.503,5.689,1.513,8.299
	c1.007,2.61,2.402,4.872,4.177,6.787s3.913,3.428,6.42,4.544c2.504,1.112,5.289,1.67,8.351,1.67c3.062,0,5.847-0.558,8.354-1.67
	c2.504-1.115,4.661-2.629,6.471-4.544c1.81-1.915,3.202-4.177,4.177-6.787C472.101,187.413,472.589,184.647,472.589,181.724z"/>
<text transform="matrix(1 0 0 1 26 40)" class="st3">IMAGEN 640x360</text>
</svg>
