<?xml version="1.0" encoding="utf-8"?>
<!-- Generator: Adobe Illustrator 19.0.0, SVG Export Plug-In . SVG Version: 6.00 Build 0)  -->
<svg version="1.1" id="Layer_1" xmlns="http://www.w3.org/2000/svg" xmlns:xlink="http://www.w3.org/1999/xlink" x="0px" y="0px"
	 viewBox="0 0 600 600" style="enable-background:new 0 0 600 600;" xml:space="preserve">
<style type="text/css">
	.st0{fill-rule:evenodd;clip-rule:evenodd;fill:#FFFFFF;}
</style>
<path class="st0" d="M324.371,334.00061l-46.7084,0.06488c-3.10541,0.00461-6.08029,1.26062-8.24802,3.48102
	c-2.1702,2.22379-3.3483,5.22849-3.27429,8.33008c1.65012,67.72452-12.3653,171.93829-29.40689,218.64172
	c-1.29311,3.5365-0.77301,7.47968,1.38789,10.56299c2.1611,3.08582,5.69391,4.9184,9.4603,4.9184l106.91441-0.05792
	c3.76608-0.00726,7.2966-1.84418,9.45258-4.92706c2.16092-3.07898,2.6745-7.02002,1.38852-10.55402
	c-19.7879-54.2251-31.32971-140.05161-29.40781-218.64609c0.07462-3.1091-1.1098-6.11661-3.28479-8.34039
	C330.46548,335.2493,327.48288,333.9964,324.371,334.00061L324.371,334.00061z M289.21829,345.31479
	c0.00171,0.09241,0.00171,0.1925,0.00171,0.2821C289.22,345.59689,289.22,345.40948,289.21829,345.31479L289.21829,345.31479
	L289.21829,345.31479z M312.84821,345.5322L312.84821,345.5322c0-0.09241,0-0.1868,0-0.27969
	C312.84821,345.3454,312.84821,345.43979,312.84821,345.5322L312.84821,345.5322z M312.7045,357.07941L312.7045,357.07941
	c-0.01669,1.90491-0.06491,3.79138-0.06491,5.70248c0,69.19742,9.72369,141.87711,25.86551,194.1044
	c-19.1012,0.01129-56.16989,0.03003-75.11301,0.04333c14.75812-50.64401,25.96939-135.85352,25.96939-199.55222
	c0-0.08902-0.0043-0.17462-0.0043-0.26282C298.10718,357.10071,303.93829,357.09311,312.7045,357.07941L312.7045,357.07941z
	 M467.67398,241.4268c36.07141-10.15091,70.79269-2.59351,95.25858,20.74049c22.04242,21.02631,31.62585,51.90662,25.00555,80.5853
	c-7.12891,30.88229-30.3446,55.93631-60.58551,65.38791c-31.15842,9.73361-64.9227,0.8526-92.6441-24.37091
	c0.00449,0.00201,0.00449,0.00201,0.00449,0.00201c-47.47919-43.20032-58.892-52.01691-101.36179-84.8157l-4.19189-3.24091
	c-3.7803-2.92331-5.48471-7.78641-4.3512-12.42419c1.133-4.63779,4.89429-8.1712,9.59109-9.01669
	c46.94-8.45041,63.80978-13.21881,113.8949-27.37621L467.67398,241.4268L467.67398,241.4268z M454.86078,270.13889
	L454.86078,270.13889l19.3533-5.46268c27.65341-7.7836,53.91299-2.32861,72.04898,14.9678
	c15.90015,15.16818,22.85413,37.2699,18.14093,57.67679c-5.12903,22.21939-22.4989,40.97-44.25391,47.76611
	c-23.0961,7.21777-47.66849,0.40558-69.19119-19.1806c-0.00452,0-0.00452,0-0.00452,0
	c-40.98898-37.29602-56.33569-49.98962-85.81888-72.88672C395.6944,286.8548,415.5242,281.25861,454.86078,270.13889
	L454.86078,270.13889z M364.63748,30.9186c-28.6467,15.6512-45.71719,46.1188-46.83209,83.5875
	c-1.90768,64.16159-3.49619,78.4978-9.40649,131.83l-0.58081,5.27379c-0.5275,4.74551,1.78952,9.3555,5.91342,11.7576
	c4.12299,2.40552,9.27319,2.15912,13.14447-0.63528c38.67371-27.89171,53.81693-36.71321,98.76901-62.90251l17.4342-10.1658
	c32.36398-18.9023,51.04489-49.13719,51.25211-82.9446c0.19388-30.4676-15.36322-58.8081-40.5882-73.965
	C426.5867,16.4327,392.44168,15.7274,364.63748,30.9186L364.63748,30.9186z M376.21469,52.1132L376.21469,52.1132
	c20.00671-10.9295,45.55109-10.402,65.09821,1.3431c17.84018,10.7195,28.8819,30.8911,28.8819,52.7125
	c0,0.1341-0.00281,0.2665-0.00281,0.398c-0.15451,25.06509-14.474,47.7527-39.2865,62.2437l-17.41089,10.1497
	c-35.30209,20.56599-53.09521,30.94389-78.74539,48.6324c4.0105-37.11601,5.54208-56.97421,7.19177-112.37021
	C342.8064,86.1287,354.97949,63.7143,376.21469,52.1132L376.21469,52.1132z M37.0712,261.7897
	c24.4641-23.33171,59.1831-30.8911,95.2543-20.7363l19.4973,5.50409c50.0255,14.14059,66.8741,18.9028,113.77779,27.34241
	c4.6965,0.8461,8.45581,4.3801,9.5885,9.01761c1.1333,4.6355-0.5686,9.5054-4.34518,12.42389l-4.24612,3.27829
	c-42.44368,32.7804-53.85089,41.5928-101.30399,84.77432C137.5699,408.6178,103.7976,417.50079,72.642,407.7655
	c-30.238-9.45529-53.4515-34.509-60.5803-65.38791C5.4414,313.6958,15.0264,282.81659,37.0712,261.7897L37.0712,261.7897z
	 M79.8432,384.711c23.0955,7.22101,47.66959,0.40851,69.1991-19.18259c40.98889-37.29523,56.3224-49.97791,85.8152-72.8819
	c-30.51331-6.15793-50.3221-11.74622-89.59871-22.84891l-19.4754-5.4938c-27.65419-7.7851-53.9127-2.33182-72.0468,14.96429
	c-15.9,15.16821-22.8566,37.27081-18.1457,57.6777C40.7177,359.1626,58.0898,377.91321,79.8432,384.711L79.8432,384.711
	L79.8432,384.711z M147.8109,31.8705c-26.8759,16.1512-43.4631,45.5196-43.4631,76.8299c0,0.3334,0.0034,0.6707,0.00481,1.0043
	c0.3708,32.6441,19.2515,62.0195,51.8055,80.595c55.7393,31.8053,67.64569,39.9379,111.9503,70.19341l4.39319,2.9968
	c3.94321,2.69351,9.09781,2.80859,13.15671,0.29651c4.05829-2.51062,6.25601-7.1759,5.6109-11.90521
	c-6.46579-47.22719-7.14529-64.72659-9.16049-116.6805l-0.79251-20.2434c-1.4899-37.4476-19.4035-68.1338-49.1468-84.1952
	C205.3647,16.2828,173.03749,16.7088,147.8109,31.8705L147.8109,31.8705z M168.1265,169.3213L168.1265,169.3213
	c-25.27989-14.423-39.3511-35.69411-39.6241-59.8904c-0.00569-0.233-0.00569-0.4657-0.00569-0.6962
	c0-22.55161,12.40839-44.53571,31.752-56.1631c17.95099-10.7867,41.1171-11.0027,60.45419-0.5593
	c22.0502,11.9055,35.35008,35.1964,36.4933,63.9034c0,0.00259,0.79169,20.2156,0.79169,20.2156
	c1.58231,40.79449,2.39102,61.3698,5.96121,92.29779C233.0634,207.4581,216.25569,196.78729,168.1265,169.3213L168.1265,169.3213z
	 M156.16,190.2968L156.16,190.2968L156.16,190.2968z"/>
</svg>
