<?xml version="1.0" encoding="utf-8"?>
<!-- Generator: Adobe Illustrator 19.0.0, SVG Export Plug-In . SVG Version: 6.00 Build 0)  -->
<svg version="1.1" id="Layer_1" xmlns="http://www.w3.org/2000/svg" xmlns:xlink="http://www.w3.org/1999/xlink" x="0px" y="0px"
	 viewBox="0 0 600 600" style="enable-background:new 0 0 600 600;" xml:space="preserve">
<style type="text/css">
	.st0{fill-rule:evenodd;clip-rule:evenodd;fill:#FFFFFF;}
</style>
<path class="st0" d="M310.0943,589.9068c2.28-2.69299,8.76849-21.71198,21.504-34.45398
	c4.97281-4.97571,8.621-8.77014,14.7157-13.08875c5.32941-3.77655,10.87601-7.27905,17.28479-10.54285
	c25.05551-12.76105,55.85822-19.25555,79.452-31.97113c74.77148-40.29819,66.49719-131.62619,66.81689-207.29459
	c-5.86398,6.58798-4.55899,26.58588-4.55899,37.07098c0,15.0607-1.7056,35.40842-14.31918,45.13831
	c-42.83942,33.04489-111.96002,35.99039-149.54602,76.80249c-21.11469,22.92691-30.564,48.88229-31.39679,82.07571
	C309.60001,551.45648,309.3114,572.20209,310.0943,589.9068L310.0943,589.9068z M280.70081,485.78479
	c-23.2489-58.60339-84.67461-70.18518-135.97661-90.97739c-21.4631-8.69891-40.1431-17.9248-46.974-37.94141
	c-6.9863-20.47009,1.3875-52.54581-7.5237-64.3371c0.0569,55.83121-5.4267,136.14291,34.3735,182.01089
	c2.8417,3.2749,4.727,5.1684,7.67449,7.7261c3.18811,2.76691,3.1376,3.74509,6.0148,5.65121
	c0.8938,0.5918,1.13191,0.62869,2.21901,1.40417c6.0797,4.33792,11.6852,8.3313,19.366,12.09601
	c33.98259,16.65643,77.7943,22.89429,105.39099,50.70313c14.02011,14.12805,15.89011,21.02759,23.095,35.39447l1.22681,2.00012
	c0.05499-0.11713,0.23358,0.33051,0.36481,0.48468C291.04779,556.72888,292.62158,515.83411,280.70081,485.78479
	L280.70081,485.78479z M310.05038,454.40051c-1.03629-27.30392-2.0239-68.52933,7.08801-93.25223
	c9.11908-24.7439,26.58109-40.62527,48.71649-51.48618c21.9592-10.7742,50.715-17.68341,70.3537-30.03
	c33.9888-21.36932,13.82169-55.46892,22.8399-72.82401c1.05161-2.0231,0.3775-0.8938,1.39059-1.89021
	c0.88589,15.4429,0.39719,34.71991,0.0791,50.38841c-0.79959,39.3783-8.00299,87.91769-37.6058,111.65271
	c-23.6543,18.96609-39.95718,23.06918-62.80298,37.51688c-16.11951,10.1936-28.4465,20.75952-39.45151,35.22382l-10.1698,14.27219
	C310.42059,453.84259,310.20038,454.2616,310.05038,454.40051L310.05038,454.40051z M289.96719,454.4725l-10.9165-15.10901
	c-32.4711-44.6799-90.23129-51.0777-114.8604-86.4368c-20.3819-29.26151-23.7401-63.93399-24.8403-99.78099l0.6546-49.0251
	c10.8566,26.11949-10.24469,54.49368,24.3481,75.79718c44.56551,27.44482,124.30042,24.00983,125.6973,124.75763
	C290.27078,420.60901,290.694,438.69061,289.96719,454.4725L289.96719,454.4725z M300.05029,225.364
	c9.6398-7.2859,25.70291-29.13229,31.41669-41.6041c10.26541-22.40651,6.72211-37.6609-1.68939-59.2444
	c-10.0755-25.85371-24.92758-46.1982-26.5542-81.21181c-0.3761-8.1003-0.14139-26.7712-3.1731-33.3039
	c-6.82889,11.3162,4.8949,38.44-18.64261,89.80099c-3.88168,8.4707-7.99478,16.52061-11.43518,25.1396
	c-12.92401,32.3784-9.05472,53.767,12.62979,81.3909C286.04291,210.7148,296.78479,223.3616,300.05029,225.364L300.05029,225.364z
	 M289.8887,323.25671c-2.46902-2.1875-5.5018-7.72211-7.89902-10.6647c-33.842-41.54211-70.22668-32.54691-89.96909-74.69241
	c-11.5574-24.6722-12.20151-71.61189-10.4037-98.7001c0.2823,0.3076,0.9337-0.02409,1.8606,3.73721l1.16,11.7975
	c0.0175,5.84679-0.082,11.90269,0.4583,17.61789c2.14439,22.6902,17.7968,28.95621,37.5361,35.9362
	c8.3336,2.94659,18.56889,6.5551,26.125,10.4604c16.53079,8.54309,28.97089,18.5981,35.99658,37.1404
	C290.75638,271.73169,291.37488,304.76611,289.8887,323.25671L289.8887,323.25671z M310.02209,324.14139
	c-2.1062-54.31738,0.9765-85.80719,40.8302-105.13919c16.09338-7.8067,38.35791-13.1857,51.49811-22.502
	c13.34097-9.45869,13.08478-25.7233,13.11279-41.74809c0.0051-2.98091,0.11819-6.06111,0.51389-8.90111
	c0.45251-3.25079,0.6268-4.58189,2.4812-6.5959c1.4502,21.00531,0.59671,50.97141-2.57718,71.3418
	c-10.54352,67.6709-57.2117,58.04269-90.35922,93.2944C322.4642,307.14291,311.48331,319.716,310.02209,324.14139z"/>
</svg>
