<?xml version="1.0" encoding="utf-8"?>
<!-- Generator: Adobe Illustrator 19.0.0, SVG Export Plug-In . SVG Version: 6.00 Build 0)  -->
<svg version="1.1" id="Layer_1" xmlns="http://www.w3.org/2000/svg" xmlns:xlink="http://www.w3.org/1999/xlink" x="0px" y="0px"
	 viewBox="0 0 600 600" style="enable-background:new 0 0 600 600;" xml:space="preserve">
<style type="text/css">
	.st0{fill-rule:evenodd;clip-rule:evenodd;fill:#FFFFFF;}
</style>
<path class="st0" d="M193.1839,316c6.9568,46.836,43.97929,83.86191,90.8161,90.81812V557.4917
	C154.25909,549.55103,50.4485,445.7395,42.5072,316H193.1839L193.1839,316z M299.99988,41.9998
	c-65.48679,0-125.26268,24.41199-170.75818,64.6149l106.5455,106.5455c17.9493-13.2942,40.16129-21.16031,64.21268-21.16031
	c59.6463,0,108,48.35341,108,108.00002c0,54.2095-39.94159,99.08618-91.99988,106.81821V557.4917
	c135.03409-8.26489,242-120.37741,242-257.49179C558,157.5105,442.48898,41.9998,299.99988,41.9998L299.99988,41.9998z
	 M41.6849,256.00021c6.5633-38.78561,21.778-75.46251,44.5631-107.52661l84.1882,84.1881
	c-3.8968,7.4846-7.13451,15.2924-9.67671,23.33852H41.6849L41.6849,256.00021z M10.4388,284
	c3.701-68.03011,30.8529-129.81509,73.5092-177.4241L206.01889,228.6468C193.9989,244.45129,185.87309,263.37881,183.0761,284
	H10.4388z"/>
</svg>
