<?xml version="1.0" encoding="utf-8"?>
<!-- Generator: Adobe Illustrator 19.0.0, SVG Export Plug-In . SVG Version: 6.00 Build 0)  -->
<svg version="1.1" id="Layer_1" xmlns="http://www.w3.org/2000/svg" xmlns:xlink="http://www.w3.org/1999/xlink" x="0px" y="0px"
	 viewBox="0 0 600 600" style="enable-background:new 0 0 600 600;" xml:space="preserve">
<style type="text/css">
	.st0{fill-rule:evenodd;clip-rule:evenodd;fill:#FFFFFF;}
</style>
<path class="st0" d="M248.0383,209.99989l51.96158,0.00031l51.96161-0.00031l25.98071,45.00031l25.98059,44.99971l-25.9809,44.99969
	l-25.98041,45.00031l-51.96161-0.00031l-51.96158,0.00031l-25.9807-45.00031L196.077,299.99991l25.9809-44.99971L248.0383,209.99989
	L248.0383,209.99989z M299.99988,249.99989c-27.61429,0-49.99998,22.3857-49.99998,50.00002c0,27.61429,22.3857,50,49.99998,50
	c27.61432,0,50-22.38571,50-50C349.99988,272.38559,327.6142,249.99989,299.99988,249.99989L299.99988,249.99989z
	 M248.0383,409.99969L299.99988,410l51.96161-0.00031L377.9422,455l25.98059,44.99969l-25.9809,44.99969l-25.98041,45.00031
	l-51.96161-0.00031l-51.96158,0.00031l-25.9807-45.00031L196.077,499.99969L222.05789,455L248.0383,409.99969L248.0383,409.99969z
	 M299.99988,449.99969c-27.61429,0-49.99998,22.3858-49.99998,50c0,27.61432,22.3857,50.00012,49.99998,50.00012
	c27.61432,0,50-22.3858,50-50.00012C349.99988,472.3855,327.6142,449.99969,299.99988,449.99969L299.99988,449.99969z
	 M248.0383,9.9998L299.99988,10l51.96161-0.0002L377.9422,55l25.98059,44.9998l-25.9809,44.99969l-25.98041,45.00031
	l-51.96161-0.00031l-51.96158,0.00031l-25.9807-45.00031L196.077,99.9998L222.05789,55L248.0383,9.9998L248.0383,9.9998z
	 M299.99988,49.9997c-27.61429,0-49.99998,22.3858-49.99998,50.0001c0,27.6142,22.3857,50,49.99998,50c27.61432,0,50-22.3858,50-50
	C349.99988,72.3855,327.6142,49.9997,299.99988,49.9997L299.99988,49.9997z M421.2431,309.99969L395.2627,355l-25.98102,44.99969
	l25.98071,44.99969l25.98071,45.00031l51.96158-0.00031l51.96158,0.00031l25.98041-45.00031l25.9809-44.99969L551.14691,355
	l-25.98065-45.00031L473.20468,310L421.2431,309.99969L421.2431,309.99969z M473.20468,349.9996
	c27.6142,0,50.00003,22.3858,50.00003,50.00009c0,27.6142-22.38583,50-50.00003,50c-27.61429,0-50.00009-22.3858-50.00009-50
	C423.20459,372.38541,445.59039,349.9996,473.20468,349.9996L473.20468,349.9996z M74.8335,310l-25.9804,45.00021L22.8722,400
	l25.9806,44.99969L74.8335,490l51.96159-0.00031L178.7567,490l25.98039-45.00031L230.71799,400l-25.98059-44.99979L178.7567,310
	l-51.9616,0.00021L74.8335,310L74.8335,310z M126.7951,349.99991c27.6143,0,49.99999,22.3858,49.99999,50.00009
	c0,27.6142-22.3857,50-49.99999,50s-50-22.3858-50-50C76.7951,372.38571,99.1808,349.99991,126.7951,349.99991L126.7951,349.99991z
	 M74.8335,110.0001l-25.9804,45.0003l-25.9809,44.99971l25.9806,44.99969l25.98071,45.00029l51.96159-0.00031l51.9616,0.00031
	l25.98039-45.00029l25.9809-44.99969L204.7374,155.0004l-25.9807-45.0003l-51.9616,0.0003L74.8335,110.0001L74.8335,110.0001z
	 M126.7951,150.00011c27.6143,0,49.99999,22.3857,49.99999,50s-22.3857,50-49.99999,50s-50-22.38571-50-50
	S99.1808,150.00011,126.7951,150.00011z"/>
</svg>
