<?xml version="1.0" encoding="utf-8"?>
<!-- Generator: Adobe Illustrator 19.0.0, SVG Export Plug-In . SVG Version: 6.00 Build 0)  -->
<svg version="1.1" id="Layer_1" xmlns="http://www.w3.org/2000/svg" xmlns:xlink="http://www.w3.org/1999/xlink" x="0px" y="0px"
	 viewBox="0 0 600 600" style="enable-background:new 0 0 600 600;" xml:space="preserve">
<style type="text/css">
	.st0{fill-rule:evenodd;clip-rule:evenodd;fill:#FFFFFF;}
</style>
<path class="st0" d="M170.0002,9.9998h259.99969v50H170.0002V9.9998L170.0002,9.9998z M63.9998,589.99969
	c-29.8233,0-54-24.1767-54-54c0-11.86298,3.8282-22.83051,10.313-31.7403L190,270.70609V89.9997h40v193.70322L52.6734,527.77081
	c-1.7615,2.42438-2.6737,5.23187-2.6737,8.22888c0,7.74463,6.2555,14.00012,14.0001,14.00012h33.2881
	c-2.51241-16.56573,1.9097-35.22479,11.1291-47.91431l151.58292-208.6351V284h110.21558l-0.2157-0.29709V89.9997h39.99991v180.70639
	L579.68701,504.2594C586.17181,513.16919,590,524.13672,590,535.99969c0,29.8233-24.1767,54-54,54H63.9998L63.9998,589.99969z
	 M248,373.99969c-11.5979,0-21.0002,9.40231-21.0002,21.00021c0,11.59799,9.4023,21.00018,21.0002,21.00018
	c11.59799,0,21.00018-9.40219,21.00018-21.00018C269.00018,383.40201,259.59799,373.99969,248,373.99969L248,373.99969z
	 M315,393.99991c-12.70261,0-23,10.2977-23,23s10.29739,23,23,23s23-10.2977,23-23S327.70261,393.99991,315,393.99991L315,393.99991
	z M380.99988,422.99969c-8.28448,0-15.00009,6.71582-15.00009,15.00009c0,8.28421,6.71561,15.00012,15.00009,15.00012
	c8.28452,0,15.00012-6.71591,15.00012-15.00012C396,429.71552,389.28439,422.99969,380.99988,422.99969L380.99988,422.99969z
	 M445,484.99991c-6.62741,0-12.00021,5.37219-12.00021,11.99988c0,6.62772,5.3728,11.99991,12.00021,11.99991
	c6.62738,0,12.00009-5.37219,12.00009-11.99991C457.00009,490.3721,451.62738,484.99991,445,484.99991L445,484.99991z
	 M355.00018,474.99991c-6.0752,0-11.00009,4.9249-11.00009,10.99979s4.9249,10.99982,11.00009,10.99982
	s11.00021-4.92493,11.00021-10.99982S361.07538,474.99991,355.00018,474.99991L355.00018,474.99991z M234.3427,436.58731
	c-8.2843,0-14.9998,6.71579-14.9998,15.00009c0,8.28421,6.7155,15.00009,14.9998,15.00009
	c8.28419,0,14.9998-6.71588,14.9998-15.00009C249.3425,443.3031,242.62689,436.58731,234.3427,436.58731L234.3427,436.58731z
	 M248,496.99979c-6.07521,0-11.00011,4.92493-11.00011,10.99991c0,6.07489,4.9249,10.99982,11.00011,10.99982
	c6.0752,0,11.00009-4.92493,11.00009-10.99982C259.00009,501.92471,254.0752,496.99979,248,496.99979L248,496.99979z M283,322.99991
	c-4.97061,0-9,4.02948-9,9c0,4.97058,4.02939,9,9,9c4.97049,0,9-4.02942,9-9C292,327.02939,287.97049,322.99991,283,322.99991z"/>
</svg>
