<?xml version="1.0" encoding="utf-8"?>
<!-- Generator: Adobe Illustrator 19.0.0, SVG Export Plug-In . SVG Version: 6.00 Build 0)  -->
<svg version="1.1" id="Layer_1" xmlns="http://www.w3.org/2000/svg" xmlns:xlink="http://www.w3.org/1999/xlink" x="0px" y="0px"
	 viewBox="0 0 600 600" style="enable-background:new 0 0 600 600;" xml:space="preserve">
<style type="text/css">
	.st0{fill-rule:evenodd;clip-rule:evenodd;fill:#FFFFFF;}
</style>
<path class="st0" d="M99.9995,559.99982h400.00079v29.99988H99.9995V559.99982L99.9995,559.99982z M158,126
	c12.8197,0,25.73599,11.15739,37.77789,28.4978c-0.7038,1.9485-1.3683,3.8152-1.98709,5.5732
	c-8.62071,24.49471-15.96701,49.76671-21.5498,75.1312c-4.2245,19.19391-8.2412,41.10881-8.2412,60.79771
	c0,45.7316,22.5788,86.19418,57.19469,110.8494C207.56239,418.43591,190.6393,426.34119,172,429.00629v55.99362h111v-72.2236
	c-57.1136-8.242-101.0002-57.3801-101.0002-116.7764c0-65.17021,59.83089-256.00021,118.00008-256.00021S418,230.8297,418,295.99991
	c0,59.3963-43.8866,108.53439-101.00021,116.7764v72.2236H428v-55.99362c-18.63892-2.6651-35.56262-10.57068-49.1947-22.15698
	C413.42108,382.1944,436,341.73151,436,295.99991c0-19.6889-4.01672-41.60381-8.24121-60.79771
	c-5.58279-25.36449-12.92911-50.63649-21.5498-75.1312c-0.6188-1.758-1.2836-3.6244-1.98709-5.57291
	C416.2637,137.15739,429.1806,126,442.00027,126c47.8168,0,96.99991,155.11319,96.99991,208.08539
	c0,48.2709-36.0629,88.2059-83.00009,94.91611v55.99841H590v29.99991H9.9998v-29.99991H144V429.0015
	c-46.9369-6.71021-83.0001-46.6452-83.0001-94.9158C60.9999,281.11292,110.1829,126,158,126z"/>
</svg>
