<?xml version="1.0" encoding="utf-8"?>
<!-- Generator: Adobe Illustrator 19.0.0, SVG Export Plug-In . SVG Version: 6.00 Build 0)  -->
<svg version="1.1" id="Capa_1" xmlns="http://www.w3.org/2000/svg" xmlns:xlink="http://www.w3.org/1999/xlink" x="0px" y="0px"
	 width="80px" height="80px" viewBox="0 0 80 80" enable-background="new 0 0 80 80" xml:space="preserve">
	<path fill-rule="evenodd" clip-rule="evenodd" fill="#FFFFFF" d="M50.54,31.25c-1.04,0-2-0.38-2.73-1.02l-4.07,3.46v0
	c1.28,1.91,2.03,4.2,2.03,6.67c0,3.28-1.32,6.25-3.45,8.42v0l2.81,2.74v0c0.96-0.64,2.11-1.01,3.34-1.01c3.32,0,6.02,2.69,6.02,6
	c0,3.32-2.69,6-6.02,6c-3.32,0-6.02-2.69-6.02-6c0-1.24,0.37-2.38,1.02-3.34v0l-2.68-3.08h0c-1.98,1.43-4.42,2.28-7.05,2.28
	c-2.77,0-5.32-0.93-7.36-2.5l0,0l-3.52,3.52v0c1.03,1.32,1.65,2.98,1.65,4.78c0,4.29-3.48,7.76-7.78,7.76
	c-4.3,0-7.78-3.48-7.78-7.76c0-4.29,3.48-7.76,7.78-7.76c1.68,0,3.23,0.53,4.5,1.43L24.44,48c-1.72-2.08-2.75-4.74-2.75-7.64
	c0-2.78,0.95-5.33,2.53-7.37v0l-5.09-5.03l0,0c-0.9,0.7-2.03,1.12-3.25,1.12c-2.92,0-5.29-2.36-5.29-5.28
	c0-2.92,2.37-5.28,5.29-5.28c2.92,0,5.29,2.36,5.29,5.28c0,1.22-0.41,2.34-1.1,3.23h0l5.19,4.81h0c2.17-2.15,5.17-3.48,8.48-3.48
	c0.06,0,0.12,0,0.19,0l0,0l1.07-6.55c-1.68-0.45-2.92-1.98-2.92-3.8c0-2.17,1.77-3.93,3.94-3.93c2.18,0,3.94,1.76,3.94,3.93
	c0,2.17-1.77,3.93-3.94,3.93l-0.44,6.56v0c2.99,0.46,5.61,2.01,7.45,4.23l4.19-3.14c-0.52-0.69-0.83-1.55-0.83-2.48
	c0-2.29,1.86-4.14,4.15-4.14c2.29,0,4.15,1.85,4.15,4.14C54.69,29.4,52.83,31.25,50.54,31.25L50.54,31.25z M33.73,32.08L33.73,32.08
	c-4.57,0-8.3,3.72-8.3,8.28c0,4.56,3.73,8.28,8.3,8.28c4.57,0,8.3-3.72,8.3-8.28C42.03,35.8,38.3,32.08,33.73,32.08z"/>
</svg>
