<?xml version="1.0" encoding="utf-8"?>
<!-- Generator: Adobe Illustrator 19.0.0, SVG Export Plug-In . SVG Version: 6.00 Build 0)  -->
<svg version="1.1" id="Capa_1" xmlns="http://www.w3.org/2000/svg" xmlns:xlink="http://www.w3.org/1999/xlink" x="0px" y="0px"
	 width="80px" height="80px" viewBox="0 0 80 80" enable-background="new 0 0 80 80" xml:space="preserve">
	<path fill-rule="evenodd" clip-rule="evenodd" fill="#FFFFFF" d="M64.33,55.29l-8.76,2.34c-0.26,0.07-0.55,0.04-0.81-0.11
	c-0.51-0.29-0.69-0.95-0.39-1.45l1.49-2.58l-4.2-2.42c-4.89,5.34-13.01,6.77-19.55,3c-0.76-0.44-1.48-0.93-2.14-1.47l6.71-3.87
	c4.07,1.63,8.83,0.07,11.09-3.84c0.18-0.31,0.34-0.64,0.49-0.97c0.12-0.26,0.29-0.49,0.49-0.67c0.4-0.37,0.93-0.57,1.48-0.57
	c0.37,0,0.73,0.11,1.04,0.29l8.01,4.61L60.77,45c0.29-0.51,0.95-0.68,1.46-0.39c0.26,0.15,0.43,0.38,0.5,0.65L65.07,54
	c0.07,0.26,0.03,0.54-0.11,0.79C64.82,55.05,64.59,55.22,64.33,55.29L64.33,55.29z M48.88,39.14L55.59,43
	c0.14-0.84,0.21-1.7,0.21-2.58c0-7.54-5.3-13.84-12.38-15.39v-4.84h2.99c0.59,0,1.07-0.48,1.07-1.07c0-0.29-0.12-0.56-0.31-0.75
	l-6.42-6.4c-0.19-0.19-0.46-0.3-0.74-0.3c-0.29,0-0.55,0.11-0.74,0.3l-6.42,6.4c-0.19,0.19-0.31,0.46-0.31,0.75
	c0,0.59,0.48,1.07,1.07,1.07h2.99l0,9.23c0,0.37,0.09,0.73,0.27,1.05c0.27,0.48,0.71,0.83,1.23,0.99c0.26,0.08,0.54,0.11,0.83,0.09
	c0.36-0.04,0.72-0.06,1.08-0.06C44.52,31.47,48.25,34.8,48.88,39.14L48.88,39.14L48.88,39.14z M40,33.6c-3.76,0-6.83,3.06-6.83,6.82
	c0,3.75,3.07,6.82,6.83,6.82c3.76,0,6.83-3.06,6.83-6.82C46.83,36.67,43.76,33.6,40,33.6L40,33.6L40,33.6z M34.45,33.39v-7.73
	c-0.8,0.3-1.58,0.67-2.35,1.11c-6.54,3.77-9.36,11.5-7.17,18.4l-4.2,2.42L19.23,45c-0.29-0.51-0.95-0.68-1.46-0.39
	c-0.26,0.15-0.43,0.38-0.5,0.65L14.93,54c-0.07,0.26-0.03,0.54,0.11,0.79c0.14,0.25,0.38,0.42,0.63,0.49l8.76,2.34
	c0.26,0.07,0.55,0.04,0.81-0.11c0.51-0.29,0.69-0.95,0.39-1.45l-1.49-2.58l8.01-4.61c0.32-0.18,0.58-0.44,0.77-0.76
	c0.28-0.47,0.37-1.03,0.25-1.56c-0.06-0.27-0.17-0.52-0.34-0.76c-0.22-0.29-0.42-0.59-0.6-0.9C29.98,40.99,31,36.1,34.45,33.39
	L34.45,33.39z"/>
</svg>
