<?xml version="1.0" encoding="utf-8"?>
<!-- Generator: Adobe Illustrator 19.0.0, SVG Export Plug-In . SVG Version: 6.00 Build 0)  -->
<svg version="1.1" id="Capa_1" xmlns="http://www.w3.org/2000/svg" xmlns:xlink="http://www.w3.org/1999/xlink" x="0px" y="0px"
	 width="80px" height="80px" viewBox="0 0 80 80" enable-background="new 0 0 80 80" xml:space="preserve">
	<path fill-rule="evenodd" clip-rule="evenodd" fill="#FFFFFF" d="M54.93,59.84l-4.94,2.86c-1.19,0.69-2.16-0.05-2.16-1.64v-5.3
	c0-1.59,0.97-3.45,2.16-4.14l4.94-2.86c1.19-0.69,2.16,0.05,2.16,1.64v5.3C57.08,57.29,56.11,59.15,54.93,59.84L54.93,59.84z
	 M54.93,47.68c1.19-0.69,2.16-2.55,2.16-4.14V26.09c0-1.59-0.97-2.33-2.16-1.64l-4.94,2.86c-1.19,0.69-2.16,2.55-2.16,4.14v17.46
	c0,1.59,0.97,2.33,2.16,1.64L54.93,47.68L54.93,47.68L54.93,47.68z M42.47,56.26L42.47,56.26l-4.94,2.86
	c-1.19,0.69-2.16-0.05-2.16-1.64v-5.3c0-1.59,0.97-3.45,2.16-4.14l4.94-2.86c1.19-0.69,2.16,0.05,2.16,1.64v5.3
	C44.63,53.71,43.66,55.58,42.47,56.26L42.47,56.26z M42.47,44.11c1.19-0.69,2.16-2.55,2.16-4.14v-5.3c0-1.59-0.97-2.33-2.16-1.64
	l-4.94,2.86c-1.19,0.69-2.16,2.55-2.16,4.14v5.3c0,1.59,0.97,2.33,2.16,1.64L42.47,44.11L42.47,44.11L42.47,44.11z M42.47,31.96
	L42.47,31.96l-4.94,2.86c-1.19,0.69-2.16-0.05-2.16-1.64v-5.3c0-1.59,0.97-3.45,2.16-4.14l4.94-2.86c1.19-0.69,2.16,0.05,2.16,1.64
	v5.3C44.63,29.41,43.66,31.27,42.47,31.96L42.47,31.96z M30.01,52.69L30.01,52.69l-4.94,2.86c-1.19,0.69-2.16-0.05-2.16-1.64V36.46
	c0-1.59,0.97-3.45,2.16-4.14l4.94-2.86c1.19-0.69,2.16,0.05,2.16,1.64v17.46C32.17,50.14,31.2,52,30.01,52.69L30.01,52.69z
	 M30.01,28.38c1.19-0.69,2.16-2.55,2.16-4.14v-5.3c0-1.59-0.97-2.33-2.16-1.64l-4.94,2.86c-1.19,0.69-2.16,2.55-2.16,4.14v5.3
	c0,1.59,0.97,2.33,2.16,1.64L30.01,28.38L30.01,28.38z"/>
</svg>
