<?xml version="1.0" encoding="utf-8"?>
<svg version="1.1" id="logo_160x090" xmlns="http://www.w3.org/2000/svg" xmlns:xlink="http://www.w3.org/1999/xlink" x="0px" y="0px" viewBox="0 0 160 90" style="enable-background:new 0 0 160 90;" xml:space="preserve">
<style type="text/css">
	.st0{opacity:1.00;fill:#FFFFFF;fill-opacity:1.00;}
	.st1{opacity:1.00;fill:#000000;fill-opacity:0.12;}
	.st2{opacity:1.00;fill:#EDD11D;fill-opacity:1.00;}
	.st3{opacity:1.00;font-family:"Roboto",sans-serif;font-size:10px;font-weight:400;fill:#000000;fill-opacity:1.00;}
</style>
<rect class="st0" width="160" height="90"/>
<path class="st1" d="M8,88.4H1.6l0-6.4H0l0,8h8L8,88.4z M152,90h8v-8h-1.6v6.4l-6.4,0V90z M152,1.6l6.4,0V8h1.6V0l-8,0V1.6z M8,1.6H1.6V8H0V0h8
	V1.6z"/>
<path class="st2" d="M13.152,23.828c0.883,0,1.629,0.305,2.239,0.914c0.608,0.61,0.913,1.356,0.913,2.238
	c0,0.884-0.305,1.63-0.913,2.239c-0.61,0.609-1.356,0.913-2.239,0.913s-1.629-0.304-2.238-0.913S10,27.864,10,26.98
	c0-0.882,0.305-1.628,0.914-2.238C11.523,24.134,12.269,23.828,13.152,23.828z M10.549,36.527c0-0.852,0.243-1.469,0.73-1.85
	c0.487-0.381,1.172-0.571,2.055-0.571c0.549,0,1.051,0.068,1.508,0.206c0.457,0.137,0.761,0.236,0.914,0.297v22.428h-5.207V36.527z
	 M39.599,25.792c0-0.822,0.236-1.431,0.708-1.827c0.472-0.395,1.149-0.594,2.032-0.594c0.549,0,1.051,0.068,1.508,0.206
	c0.457,0.137,0.761,0.236,0.914,0.297v20.601c0,2.223-0.313,4.155-0.937,5.8c-0.625,1.645-1.485,3.015-2.58,4.111
	c-1.096,1.097-2.391,1.919-3.883,2.467c-1.492,0.548-3.122,0.822-4.887,0.822c-1.798,0-3.449-0.305-4.956-0.914
	c-1.508-0.608-2.809-1.446-3.905-2.512c-1.096-1.066-1.957-2.345-2.581-3.838c-0.625-1.492-0.937-3.105-0.937-4.841
	c0-1.765,0.297-3.387,0.891-4.864c0.594-1.477,1.416-2.756,2.467-3.837c1.051-1.08,2.284-1.919,3.7-2.513
	c1.416-0.594,2.961-0.891,4.636-0.891c1.765,0,3.318,0.343,4.659,1.028c1.34,0.685,2.391,1.515,3.152,2.49V25.792z M39.599,45.571
	c0-1.034-0.176-2.009-0.525-2.923c-0.351-0.914-0.83-1.705-1.439-2.375c-0.609-0.669-1.347-1.195-2.215-1.576
	c-0.868-0.38-1.821-0.571-2.855-0.571c-1.066,0-2.025,0.191-2.878,0.571c-0.853,0.381-1.592,0.899-2.216,1.554
	c-0.624,0.655-1.104,1.439-1.439,2.352c-0.335,0.913-0.503,1.903-0.503,2.968c0,1.066,0.167,2.048,0.503,2.947
	c0.335,0.898,0.814,1.674,1.439,2.329c0.624,0.655,1.363,1.172,2.216,1.553c0.852,0.381,1.811,0.57,2.878,0.57
	c1.034,0,1.987-0.183,2.855-0.548c0.868-0.365,1.606-0.867,2.215-1.507c0.609-0.64,1.089-1.416,1.439-2.329
	C39.423,47.672,39.599,46.667,39.599,45.571z M69.656,55.347c-0.245,0.152-0.624,0.365-1.143,0.638
	c-0.519,0.275-1.165,0.534-1.94,0.776c-0.778,0.244-1.676,0.457-2.696,0.64c-1.02,0.183-2.138,0.275-3.357,0.275
	c-1.706,0-3.298-0.259-4.773-0.776c-1.478-0.519-2.771-1.287-3.884-2.307c-1.112-1.02-1.986-2.268-2.626-3.746
	c-0.639-1.478-0.959-3.175-0.959-5.093c0-1.827,0.312-3.495,0.936-5.002c0.624-1.507,1.492-2.801,2.605-3.882
	c1.11-1.08,2.42-1.919,3.928-2.513c1.505-0.594,3.159-0.891,4.954-0.891c1.584,0,2.986,0.206,4.204,0.617
	c1.216,0.411,2.244,0.959,3.083,1.644c0.836,0.685,1.469,1.485,1.896,2.398c0.424,0.914,0.638,1.889,0.638,2.923
	c0,1.066-0.198,2.033-0.594,2.901s-1.096,1.614-2.102,2.238c-1.004,0.624-2.359,1.112-4.065,1.462
	c-1.706,0.35-3.867,0.526-6.485,0.526c-0.611,0-1.182-0.007-1.715-0.024c-0.532-0.014-1.104-0.038-1.712-0.068
	c0.243,1.553,0.995,2.809,2.261,3.769c1.263,0.959,3.067,1.439,5.411,1.439c0.792,0,1.522-0.061,2.194-0.183
	c0.669-0.121,1.271-0.275,1.804-0.457c0.532-0.183,0.99-0.365,1.369-0.548c0.382-0.183,0.664-0.321,0.848-0.411L69.656,55.347z
	 M53.622,44.52c0.7,0.031,1.369,0.046,2.01,0.046c0.638,0,1.28,0,1.918,0c1.673,0,3.03-0.107,4.065-0.32
	c1.034-0.213,1.843-0.486,2.42-0.822c0.58-0.335,0.962-0.715,1.143-1.142c0.184-0.426,0.273-0.868,0.273-1.325
	c0-1.157-0.463-2.025-1.391-2.603c-0.931-0.578-2.08-0.868-3.449-0.868c-1.129,0-2.119,0.198-2.969,0.594
	c-0.853,0.396-1.57,0.921-2.147,1.576c-0.58,0.655-1.029,1.409-1.349,2.261C53.829,42.77,53.653,43.637,53.622,44.52z
	 M97.334,53.153c0,2.438-0.319,4.515-0.959,6.237c-0.638,1.719-1.529,3.113-2.672,4.179c-1.142,1.065-2.497,1.841-4.065,2.329
	c-1.568,0.486-3.266,0.73-5.094,0.73c-2.314,0-4.155-0.19-5.527-0.57c-1.37-0.382-2.36-0.693-2.968-0.937l0.821-2.467
	c0.183,0.061,0.48,0.176,0.891,0.343c0.411,0.167,0.937,0.328,1.577,0.48s1.37,0.29,2.193,0.411s1.72,0.183,2.695,0.183
	c1.096,0,2.239-0.114,3.426-0.342c1.188-0.229,2.275-0.701,3.266-1.416c0.988-0.716,1.811-1.735,2.466-3.061
	c0.655-1.324,0.983-3.097,0.983-5.321v-1.097c-0.976,1.584-2.216,2.787-3.723,3.609c-1.507,0.822-3.266,1.234-5.276,1.234
	c-1.889,0-3.578-0.305-5.07-0.914c-1.493-0.608-2.749-1.454-3.768-2.534c-1.022-1.082-1.805-2.345-2.353-3.792
	s-0.822-3.007-0.822-4.682c0-1.645,0.297-3.19,0.891-4.636c0.594-1.446,1.423-2.71,2.49-3.792c1.066-1.08,2.336-1.933,3.814-2.558
	c1.478-0.624,3.114-0.936,4.911-0.936c1.522,0,2.938,0.221,4.247,0.662c1.309,0.442,2.467,1.073,3.472,1.896
	c1.004,0.822,1.841,1.827,2.512,3.014c0.669,1.188,1.142,2.528,1.416,4.02c0.06,0.427,0.114,0.921,0.159,1.485
	c0.046,0.564,0.068,1.211,0.068,1.941V53.153z M76.598,45.754c0,1.37,0.205,2.634,0.616,3.791c0.411,1.157,1.005,2.147,1.781,2.969
	c0.776,0.822,1.705,1.461,2.787,1.918c1.08,0.457,2.307,0.686,3.677,0.686c1.34,0,2.55-0.244,3.631-0.732
	c1.08-0.486,2.01-1.149,2.787-1.986s1.37-1.827,1.781-2.969s0.616-2.382,0.616-3.723c0-1.34-0.213-2.573-0.64-3.7
	c-0.427-1.126-1.02-2.101-1.781-2.924c-0.761-0.822-1.689-1.469-2.787-1.941c-1.096-0.472-2.299-0.708-3.608-0.708
	c-1.37,0-2.597,0.244-3.677,0.731c-1.082,0.487-2.01,1.15-2.787,1.987c-0.776,0.838-1.37,1.827-1.781,2.968
	C76.803,43.265,76.598,44.475,76.598,45.754z M104.462,47.718c0.335,2.346,1.309,4.157,2.923,5.435
	c1.614,1.28,3.746,1.919,6.394,1.919c1.554,0,2.87-0.22,3.952-0.662c1.08-0.44,1.911-0.829,2.49-1.165l1.324,2.193
	c-0.244,0.153-0.609,0.358-1.096,0.616c-0.488,0.259-1.082,0.512-1.781,0.754c-0.701,0.244-1.493,0.449-2.375,0.618
	c-0.884,0.166-1.858,0.251-2.923,0.251c-1.676,0-3.252-0.251-4.728-0.754c-1.478-0.502-2.771-1.241-3.882-2.215
	c-1.112-0.974-1.988-2.177-2.626-3.609c-0.64-1.432-0.96-3.09-0.96-4.979c0-1.827,0.305-3.495,0.914-5.002
	c0.609-1.508,1.461-2.801,2.558-3.883c1.096-1.08,2.398-1.918,3.906-2.512c1.507-0.594,3.159-0.891,4.956-0.891
	c1.522,0,2.855,0.176,3.997,0.525c1.142,0.351,2.094,0.845,2.855,1.485c0.761,0.64,1.331,1.393,1.713,2.261
	c0.381,0.868,0.57,1.804,0.57,2.81c0,1.005-0.205,1.926-0.616,2.764c-0.411,0.838-1.112,1.568-2.101,2.192
	c-0.99,0.624-2.315,1.112-3.974,1.462c-1.66,0.35-3.754,0.524-6.281,0.524c-0.974,0-1.865-0.007-2.672-0.022
	C106.189,47.817,105.344,47.779,104.462,47.718z M104.37,45.343c0.822,0.061,1.623,0.099,2.399,0.114
	c0.776,0.015,1.591,0.022,2.444,0.022c2.07,0,3.775-0.129,5.116-0.388c1.34-0.258,2.398-0.601,3.174-1.027
	c0.776-0.427,1.317-0.928,1.621-1.508c0.304-0.578,0.457-1.188,0.457-1.827c0-0.852-0.176-1.568-0.526-2.147
	c-0.35-0.578-0.822-1.043-1.416-1.393c-0.594-0.35-1.263-0.601-2.009-0.754c-0.747-0.152-1.515-0.228-2.307-0.228
	c-1.432,0-2.696,0.251-3.792,0.753c-1.096,0.503-2.017,1.181-2.763,2.032c-0.747,0.853-1.326,1.827-1.737,2.924
	C104.621,43.013,104.4,44.155,104.37,45.343z M150,45.754c0,1.644-0.304,3.19-0.913,4.636c-0.609,1.447-1.454,2.711-2.536,3.792
	c-1.08,1.082-2.367,1.935-3.86,2.558c-1.492,0.623-3.121,0.937-4.887,0.937c-1.766,0-3.396-0.314-4.887-0.937
	s-2.78-1.476-3.86-2.558c-1.08-1.08-1.926-2.345-2.534-3.792c-0.611-1.446-0.914-2.991-0.914-4.636c0-1.675,0.304-3.235,0.914-4.682
	c0.608-1.446,1.454-2.71,2.534-3.791s2.368-1.926,3.86-2.536c1.492-0.608,3.121-0.913,4.887-0.913c1.766,0,3.396,0.305,4.887,0.913
	c1.493,0.61,2.78,1.455,3.86,2.536c1.082,1.081,1.926,2.345,2.536,3.791C149.696,42.519,150,44.079,150,45.754z M146.758,45.754
	c0-1.309-0.213-2.536-0.64-3.677c-0.427-1.142-1.036-2.139-1.827-2.992c-0.792-0.852-1.736-1.515-2.831-1.986
	c-1.097-0.472-2.315-0.708-3.655-0.708c-1.34,0-2.558,0.236-3.654,0.708c-1.097,0.472-2.041,1.135-2.833,1.986
	c-0.792,0.853-1.401,1.85-1.826,2.992c-0.428,1.142-0.64,2.368-0.64,3.677c0,1.279,0.22,2.489,0.662,3.631
	c0.44,1.142,1.051,2.131,1.827,2.969c0.776,0.838,1.712,1.5,2.809,1.988c1.096,0.486,2.314,0.73,3.654,0.73
	c1.34,0,2.558-0.244,3.655-0.73c1.096-0.488,2.039-1.15,2.831-1.988s1.401-1.827,1.827-2.969
	C146.544,48.243,146.758,47.033,146.758,45.754z"/>
<text transform="matrix(1 0 0 1 8 14)" class="st3">LOGO 160x090</text>
</svg>
