<?xml version="1.0" encoding="utf-8"?>
<svg version="1.1" id="image_190x074" xmlns="http://www.w3.org/2000/svg" xmlns:xlink="http://www.w3.org/1999/xlink" x="0px" y="0px" viewBox="0 0 210 118" style="enable-background:new 0 0 210 118;" xml:space="preserve">
<style type="text/css">
	.st0{opacity:1.00;fill:#FFFFFF;fill-opacity:1.00;}
	.st1{opacity:1.00;fill:#000000;fill-opacity:0.12;}
	.st2{opacity:1.00;fill:#EDD11D;fill-opacity:1.00;}
	.st3{opacity:1.00;font-family:"Roboto",sans-serif;font-size:10px;font-weight:400;fill:#000000;fill-opacity:1.00;}
</style>
<rect class="st0" width="210" height="118"/>
<path class="st1" d="M8.842,1.768H1.768v7.074H0V0h8.842V1.768z M201.158,1.768l7.074,0v7.074H210V0l-8.842,0V1.768z M201.158,118H210v-8.842
	h-1.768v7.074h-7.074V118z M8.842,116.232l-7.074,0l0-7.074H0L0,118h8.842V116.232z"/>
<path class="st2" d="M48.656,41.155c0.744,0,1.373,0.257,1.887,0.77c0.513,0.514,0.77,1.143,0.77,1.886
	c0,0.745-0.257,1.373-0.77,1.887c-0.514,0.513-1.143,0.77-1.887,0.77s-1.373-0.256-1.886-0.77S46,44.557,46,43.812
	c0-0.744,0.257-1.372,0.77-1.886C47.284,41.413,47.912,41.155,48.656,41.155z M46.462,51.858c0-0.718,0.205-1.238,0.616-1.559
	c0.411-0.321,0.988-0.481,1.732-0.481c0.462,0,0.886,0.058,1.271,0.173c0.385,0.115,0.642,0.199,0.77,0.25v18.903h-4.389V51.858z
	 M70.948,42.811c0-0.693,0.199-1.206,0.597-1.54c0.398-0.333,0.969-0.501,1.713-0.501c0.462,0,0.886,0.058,1.271,0.173
	c0.385,0.115,0.642,0.199,0.77,0.25v17.364c0,1.873-0.264,3.502-0.79,4.889c-0.526,1.386-1.251,2.541-2.175,3.465
	c-0.924,0.925-2.016,1.618-3.273,2.08c-1.258,0.462-2.631,0.693-4.119,0.693c-1.515,0-2.907-0.257-4.177-0.771
	c-1.271-0.512-2.367-1.218-3.292-2.117s-1.65-1.976-2.175-3.235c-0.526-1.257-0.79-2.617-0.79-4.08c0-1.488,0.25-2.854,0.751-4.1
	c0.501-1.245,1.194-2.323,2.079-3.234c0.886-0.911,1.925-1.617,3.119-2.118c1.193-0.501,2.496-0.751,3.908-0.751
	c1.488,0,2.797,0.289,3.927,0.867c1.129,0.577,2.015,1.277,2.656,2.098V42.811z M70.948,59.481c0-0.872-0.148-1.694-0.442-2.464
	c-0.295-0.77-0.7-1.437-1.213-2.002c-0.513-0.564-1.136-1.007-1.867-1.328c-0.731-0.32-1.534-0.481-2.406-0.481
	c-0.899,0-1.707,0.161-2.426,0.481c-0.719,0.321-1.342,0.758-1.868,1.309c-0.526,0.552-0.931,1.213-1.213,1.983
	c-0.283,0.77-0.424,1.604-0.424,2.502c0,0.899,0.141,1.726,0.424,2.484c0.282,0.757,0.686,1.411,1.213,1.963
	c0.526,0.552,1.148,0.988,1.868,1.309c0.718,0.321,1.527,0.481,2.426,0.481c0.872,0,1.675-0.154,2.406-0.462
	c0.731-0.308,1.354-0.731,1.867-1.27c0.513-0.539,0.918-1.194,1.213-1.963C70.8,61.252,70.948,60.405,70.948,59.481z M96.281,67.721
	c-0.207,0.128-0.526,0.308-0.963,0.538c-0.437,0.231-0.982,0.45-1.635,0.654c-0.656,0.206-1.412,0.385-2.272,0.539
	s-1.802,0.231-2.829,0.231c-1.438,0-2.78-0.219-4.023-0.654c-1.245-0.437-2.336-1.084-3.273-1.944
	c-0.938-0.86-1.674-1.912-2.214-3.157c-0.539-1.245-0.808-2.676-0.808-4.293c0-1.54,0.263-2.946,0.789-4.216
	c0.526-1.27,1.258-2.361,2.195-3.272c0.935-0.911,2.04-1.617,3.311-2.118c1.269-0.501,2.662-0.751,4.176-0.751
	c1.335,0,2.517,0.173,3.544,0.52c1.025,0.347,1.892,0.808,2.599,1.386c0.705,0.577,1.238,1.251,1.598,2.021
	c0.357,0.77,0.538,1.592,0.538,2.464c0,0.899-0.167,1.714-0.501,2.445c-0.334,0.731-0.923,1.361-1.772,1.886
	c-0.846,0.526-1.988,0.938-3.426,1.232c-1.438,0.295-3.259,0.443-5.466,0.443c-0.515,0-0.996-0.006-1.445-0.02
	c-0.449-0.012-0.931-0.032-1.443-0.058c0.204,1.309,0.839,2.367,1.906,3.177c1.064,0.808,2.585,1.213,4.561,1.213
	c0.667,0,1.283-0.052,1.849-0.154c0.564-0.102,1.072-0.231,1.52-0.385c0.449-0.154,0.834-0.308,1.154-0.462
	c0.322-0.154,0.559-0.27,0.714-0.347L96.281,67.721z M82.767,58.596c0.59,0.026,1.154,0.039,1.694,0.039c0.538,0,1.079,0,1.617,0
	c1.41,0,2.554-0.09,3.426-0.27c0.872-0.179,1.553-0.41,2.04-0.693c0.489-0.282,0.811-0.603,0.963-0.962
	c0.155-0.359,0.23-0.731,0.23-1.117c0-0.975-0.39-1.707-1.173-2.194c-0.785-0.488-1.753-0.731-2.907-0.731
	c-0.952,0-1.786,0.167-2.503,0.501c-0.719,0.334-1.323,0.777-1.809,1.328c-0.489,0.552-0.867,1.187-1.137,1.906
	C82.941,57.12,82.793,57.852,82.767,58.596z M119.61,65.872c0,2.055-0.269,3.806-0.808,5.257c-0.538,1.449-1.289,2.624-2.252,3.522
	c-0.962,0.898-2.104,1.552-3.426,1.963c-1.322,0.41-2.753,0.616-4.293,0.616c-1.95,0-3.502-0.16-4.659-0.481
	c-1.155-0.322-1.989-0.584-2.501-0.79l0.692-2.08c0.154,0.052,0.404,0.148,0.751,0.289c0.347,0.141,0.79,0.276,1.329,0.404
	c0.539,0.128,1.155,0.244,1.848,0.347c0.693,0.102,1.45,0.154,2.271,0.154c0.923,0,1.887-0.096,2.888-0.288
	c1.001-0.193,1.917-0.591,2.753-1.194c0.833-0.604,1.526-1.463,2.078-2.58c0.552-1.116,0.828-2.611,0.828-4.485v-0.925
	c-0.822,1.335-1.868,2.349-3.138,3.042s-2.753,1.04-4.447,1.04c-1.592,0-3.016-0.257-4.273-0.771
	c-1.258-0.512-2.317-1.225-3.176-2.136c-0.861-0.912-1.522-1.976-1.983-3.196s-0.693-2.534-0.693-3.946
	c0-1.386,0.25-2.689,0.751-3.908s1.2-2.284,2.098-3.196c0.899-0.911,1.969-1.63,3.215-2.156c1.245-0.526,2.625-0.789,4.139-0.789
	c1.283,0,2.477,0.186,3.58,0.558c1.103,0.372,2.08,0.905,2.927,1.598c0.846,0.693,1.552,1.54,2.117,2.541
	c0.564,1.001,0.962,2.131,1.194,3.388c0.051,0.36,0.096,0.777,0.134,1.251c0.039,0.475,0.058,1.02,0.058,1.636V65.872z
	 M102.132,59.636c0,1.155,0.173,2.22,0.519,3.195c0.347,0.975,0.847,1.809,1.502,2.503c0.654,0.693,1.437,1.231,2.349,1.617
	c0.911,0.385,1.944,0.578,3.099,0.578c1.129,0,2.149-0.206,3.061-0.617c0.911-0.41,1.694-0.968,2.349-1.674
	c0.654-0.706,1.155-1.54,1.502-2.503s0.519-2.008,0.519-3.138c0-1.129-0.18-2.168-0.539-3.118c-0.36-0.949-0.86-1.771-1.502-2.464
	c-0.642-0.693-1.424-1.238-2.349-1.636c-0.923-0.398-1.937-0.597-3.041-0.597c-1.155,0-2.189,0.206-3.099,0.616
	c-0.912,0.411-1.694,0.969-2.349,1.675c-0.654,0.706-1.155,1.54-1.502,2.502C102.305,57.537,102.132,58.558,102.132,59.636z
	 M125.618,61.291c0.282,1.977,1.103,3.504,2.464,4.581c1.361,1.079,3.157,1.618,5.389,1.618c1.31,0,2.419-0.186,3.331-0.558
	c0.911-0.371,1.611-0.699,2.098-0.982l1.116,1.848c-0.206,0.129-0.513,0.302-0.923,0.519c-0.411,0.219-0.912,0.431-1.502,0.636
	c-0.591,0.206-1.258,0.378-2.002,0.52c-0.745,0.14-1.566,0.211-2.464,0.211c-1.412,0-2.741-0.211-3.985-0.636
	c-1.245-0.423-2.336-1.046-3.272-1.867c-0.938-0.821-1.675-1.835-2.214-3.042c-0.539-1.207-0.81-2.605-0.81-4.196
	c0-1.54,0.257-2.946,0.771-4.216c0.513-1.271,1.231-2.361,2.156-3.273c0.923-0.911,2.021-1.617,3.292-2.117
	c1.27-0.501,2.662-0.751,4.177-0.751c1.283,0,2.406,0.148,3.368,0.442c0.962,0.295,1.765,0.713,2.406,1.251
	c0.641,0.539,1.122,1.174,1.444,1.906c0.321,0.732,0.481,1.521,0.481,2.368c0,0.847-0.173,1.624-0.519,2.329
	c-0.347,0.706-0.938,1.322-1.771,1.848c-0.834,0.526-1.952,0.938-3.35,1.232c-1.399,0.295-3.164,0.442-5.294,0.442
	c-0.821,0-1.572-0.006-2.252-0.019S126.361,61.342,125.618,61.291z M125.54,59.289c0.693,0.052,1.368,0.083,2.022,0.096
	s1.341,0.019,2.06,0.019c1.745,0,3.182-0.109,4.312-0.327c1.129-0.217,2.021-0.506,2.675-0.866c0.654-0.36,1.11-0.782,1.366-1.271
	c0.256-0.487,0.385-1.001,0.385-1.54c0-0.718-0.148-1.322-0.443-1.81c-0.295-0.487-0.693-0.879-1.194-1.174
	c-0.501-0.295-1.064-0.507-1.693-0.636c-0.63-0.128-1.277-0.192-1.944-0.192c-1.207,0-2.272,0.211-3.196,0.635
	c-0.923,0.424-1.7,0.995-2.329,1.713c-0.63,0.719-1.117,1.54-1.464,2.464C125.752,57.325,125.566,58.288,125.54,59.289z M164,59.636
	c0,1.386-0.256,2.689-0.77,3.907c-0.513,1.22-1.225,2.285-2.137,3.196c-0.911,0.912-1.995,1.631-3.253,2.156
	c-1.257,0.525-2.631,0.79-4.119,0.79c-1.489,0-2.862-0.264-4.119-0.79c-1.257-0.525-2.343-1.244-3.253-2.156
	c-0.911-0.911-1.624-1.976-2.136-3.196c-0.515-1.218-0.771-2.521-0.771-3.907c0-1.412,0.256-2.727,0.771-3.947
	c0.512-1.218,1.225-2.284,2.136-3.195c0.911-0.911,1.996-1.623,3.253-2.137c1.257-0.513,2.631-0.77,4.119-0.77
	c1.489,0,2.862,0.257,4.119,0.77c1.258,0.514,2.343,1.226,3.253,2.137c0.912,0.911,1.624,1.977,2.137,3.195
	C163.744,56.909,164,58.224,164,59.636z M161.267,59.636c0-1.103-0.18-2.137-0.539-3.099c-0.36-0.962-0.873-1.803-1.54-2.522
	c-0.667-0.718-1.463-1.277-2.386-1.674c-0.925-0.398-1.952-0.597-3.081-0.597c-1.129,0-2.156,0.199-3.079,0.597
	c-0.925,0.398-1.72,0.956-2.387,1.674c-0.667,0.719-1.181,1.56-1.539,2.522c-0.361,0.962-0.539,1.996-0.539,3.099
	c0,1.078,0.186,2.098,0.558,3.06c0.371,0.962,0.886,1.796,1.54,2.503c0.654,0.706,1.443,1.264,2.367,1.675
	c0.923,0.41,1.95,0.616,3.079,0.616c1.129,0,2.156-0.206,3.081-0.616c0.923-0.411,1.719-0.969,2.386-1.675
	c0.667-0.706,1.181-1.54,1.54-2.503C161.087,61.733,161.267,60.714,161.267,59.636z"/>
<text transform="matrix(1 0 0 1 8 16)" class="st3">IMAGEN 210x118</text>
</svg>
