<svg enable-background="new 0 0 58 58" height="512" viewBox="0 0 58 58" width="512" xmlns="http://www.w3.org/2000/svg"><path d="m54.75 58h-51.5c-1.795 0-3.25-1.455-3.25-3.25v-43.75h58v43.75c0 1.795-1.455 3.25-3.25 3.25z" fill="#e7eced"/><path d="m58 12h-58v-8.75c0-1.795 1.455-3.25 3.25-3.25h51.5c1.795 0 3.25 1.455 3.25 3.25z" fill="#556080"/><path d="m4 4h4v4h-4z" fill="#dd352e"/><path d="m12 4h4v4h-4z" fill="#ebba16"/><path d="m20 4h4v4h-4z" fill="#23a24d"/><g fill="#25ae88"><path d="m6.5 34h-1.5c-.552 0-1-.447-1-1v-1.5c0-.553.448-1 1-1s1 .447 1 1v.5h.5c.552 0 1 .447 1 1s-.448 1-1 1z"/><path d="m5 27.772c-.552 0-1-.447-1-1v-3.546c0-.553.448-1 1-1s1 .447 1 1v3.546c0 .553-.448 1-1 1z"/><path d="m5 19.5c-.552 0-1-.447-1-1v-1.5c0-.553.448-1 1-1h1.5c.552 0 1 .447 1 1s-.448 1-1 1h-.5v.5c0 .553-.448 1-1 1z"/><path d="m47.587 18h-2.935c-.552 0-1-.447-1-1s.448-1 1-1h2.935c.552 0 1 .447 1 1s-.448 1-1 1zm-6.848 0h-2.935c-.552 0-1-.447-1-1s.448-1 1-1h2.935c.552 0 1 .447 1 1s-.447 1-1 1zm-6.848 0h-2.935c-.552 0-1-.447-1-1s.448-1 1-1h2.935c.552 0 1 .447 1 1s-.448 1-1 1zm-6.848 0h-2.935c-.552 0-1-.447-1-1s.448-1 1-1h2.935c.552 0 1 .447 1 1s-.447 1-1 1zm-6.847 0h-2.935c-.552 0-1-.447-1-1s.448-1 1-1h2.935c.552 0 1 .447 1 1s-.448 1-1 1zm-6.848 0h-2.935c-.552 0-1-.447-1-1s.448-1 1-1h2.935c.552 0 1 .447 1 1s-.448 1-1 1z"/><path d="m53 19.5c-.552 0-1-.447-1-1v-.5h-.5c-.552 0-1-.447-1-1s.448-1 1-1h1.5c.552 0 1 .447 1 1v1.5c0 .553-.448 1-1 1z"/><path d="m53 27.773c-.552 0-1-.447-1-1v-3.546c0-.553.448-1 1-1s1 .447 1 1v3.546c0 .553-.448 1-1 1z"/><path d="m53 34h-1.5c-.552 0-1-.447-1-1s.448-1 1-1h.5v-.5c0-.553.448-1 1-1s1 .447 1 1v1.5c0 .553-.448 1-1 1z"/><path d="m47.587 34h-2.935c-.552 0-1-.447-1-1s.448-1 1-1h2.935c.552 0 1 .447 1 1s-.448 1-1 1zm-6.848 0h-2.935c-.552 0-1-.447-1-1s.448-1 1-1h2.935c.552 0 1 .447 1 1s-.447 1-1 1zm-6.848 0h-2.935c-.552 0-1-.447-1-1s.448-1 1-1h2.935c.552 0 1 .447 1 1s-.448 1-1 1zm-6.848 0h-2.935c-.552 0-1-.447-1-1s.448-1 1-1h2.935c.552 0 1 .447 1 1s-.447 1-1 1zm-6.847 0h-2.935c-.552 0-1-.447-1-1s.448-1 1-1h2.935c.552 0 1 .447 1 1s-.448 1-1 1zm-6.848 0h-2.935c-.552 0-1-.447-1-1s.448-1 1-1h2.935c.552 0 1 .447 1 1s-.448 1-1 1z"/><path d="m29 29c-.552 0-1-.447-1-1v-6c0-.553.448-1 1-1s1 .447 1 1v6c0 .553-.448 1-1 1z"/><path d="m32 26h-6c-.552 0-1-.447-1-1s.448-1 1-1h6c.552 0 1 .447 1 1s-.448 1-1 1z"/></g><path d="m5 38h48v15h-48z" fill="#ebba16"/></svg>