<?xml version="1.0" encoding="utf-8"?>
<svg version="1.1" id="image_980x380" xmlns="http://www.w3.org/2000/svg" xmlns:xlink="http://www.w3.org/1999/xlink" x="0px" y="0px" viewBox="0 0 980 380" style="enable-background:new 0 0 980 380;" xml:space="preserve">
<style type="text/css">
	.st0{opacity:1.00;fill:#FFFFFF;fill-opacity:1.00;}
	.st1{opacity:1.00;fill:#000000;fill-opacity:0.12;}
	.st2{opacity:1.00;fill:#EDD11D;fill-opacity:1.00;}
	.st3{opacity:1.00;font-family:"Roboto",sans-serif;font-size:16px;font-weight:400;fill:#000000;fill-opacity:1.00;}
</style>
<rect class="st0" width="980" height="380"/>
<path class="st1" d="M30,6H6v24H0V0h30V6z M950,6l24,0v24h6V0l-30,0V6z M950,380h30v-30h-6v24h-24V380z M30,374H6l0-24H0l0,30h30L30,374z"/>
<path class="st2" d="M308.555,132.534c2.397,0,4.421,0.829,6.077,2.48c1.652,1.655,2.478,3.68,2.478,6.075
	c0,2.399-0.827,4.423-2.478,6.077c-1.655,1.653-3.68,2.478-6.077,2.478c-2.397,0-4.421-0.825-6.075-2.478
	c-1.653-1.653-2.48-3.678-2.48-6.077c0-2.395,0.827-4.419,2.48-6.075C304.134,133.363,306.158,132.534,308.555,132.534z
	 M301.489,167.001c0-2.312,0.66-3.986,1.983-5.021c1.322-1.033,3.182-1.549,5.579-1.549c1.489,0,2.853,0.185,4.092,0.558
	c1.241,0.371,2.066,0.641,2.48,0.806v60.875h-14.134V167.001z M380.34,137.865c0-2.23,0.639-3.884,1.922-4.958
	c1.281-1.073,3.12-1.612,5.517-1.612c1.489,0,2.853,0.185,4.092,0.558c1.239,0.371,2.066,0.641,2.48,0.806v55.916
	c0,6.033-0.849,11.279-2.543,15.744c-1.695,4.465-4.03,8.184-7.004,11.158c-2.976,2.978-6.491,5.21-10.539,6.697
	c-4.05,1.487-8.473,2.232-13.265,2.232c-4.879,0-9.361-0.829-13.453-2.482c-4.092-1.65-7.624-3.924-10.6-6.818
	c-2.976-2.894-5.312-6.364-7.005-10.416c-1.695-4.048-2.543-8.428-2.543-13.141c0-4.792,0.806-9.192,2.418-13.203
	c1.612-4.009,3.844-7.48,6.695-10.414c2.853-2.932,6.199-5.208,10.044-6.82c3.842-1.612,8.036-2.418,12.584-2.418
	c4.792,0,9.007,0.931,12.645,2.79c3.636,1.86,6.489,4.113,8.555,6.758V137.865z M380.34,191.549c0-2.807-0.477-5.454-1.425-7.934
	c-0.952-2.48-2.253-4.627-3.907-6.447c-1.653-1.816-3.657-3.243-6.012-4.277c-2.355-1.031-4.941-1.549-7.749-1.549
	c-2.894,0-5.498,0.518-7.811,1.549c-2.316,1.035-4.321,2.44-6.014,4.217c-1.695,1.778-2.997,3.905-3.905,6.385
	c-0.91,2.478-1.364,5.167-1.364,8.057c0,2.894,0.454,5.558,1.364,7.999c0.908,2.437,2.21,4.544,3.905,6.322
	c1.693,1.778,3.698,3.182,6.014,4.215c2.314,1.033,4.917,1.548,7.811,1.548c2.807,0,5.394-0.496,7.749-1.487
	c2.355-0.991,4.359-2.353,6.012-4.09c1.653-1.737,2.955-3.844,3.907-6.322C379.863,197.251,380.34,194.525,380.34,191.549z
	 M461.923,218.084c-0.666,0.412-1.695,0.991-3.103,1.733c-1.408,0.745-3.163,1.449-5.267,2.107
	c-2.111,0.662-4.548,1.241-7.318,1.737s-5.804,0.745-9.111,0.745c-4.631,0-8.952-0.704-12.955-2.107
	c-4.011-1.408-7.522-3.492-10.541-6.262s-5.392-6.156-7.128-10.167c-1.735-4.011-2.603-8.619-2.603-13.824
	c0-4.96,0.846-9.486,2.541-13.578c1.693-4.09,4.05-7.603,7.07-10.537c3.012-2.932,6.568-5.208,10.662-6.82
	c4.086-1.612,8.574-2.418,13.447-2.418c4.298,0,8.105,0.558,11.411,1.674c3.299,1.116,6.092,2.603,8.369,4.463
	c2.27,1.86,3.988,4.03,5.146,6.51c1.15,2.48,1.733,5.127,1.733,7.934c0,2.894-0.537,5.518-1.612,7.874s-2.974,4.381-5.706,6.075
	c-2.724,1.695-6.402,3.019-11.033,3.967c-4.631,0.95-10.496,1.426-17.601,1.426c-1.657,0-3.209-0.019-4.654-0.064
	c-1.445-0.038-2.997-0.102-4.646-0.185c0.658,4.215,2.702,7.624,6.137,10.231c3.428,2.603,8.324,3.905,14.688,3.905
	c2.149,0,4.132-0.166,5.955-0.496c1.816-0.329,3.451-0.745,4.896-1.241c1.445-0.496,2.686-0.991,3.716-1.487
	c1.037-0.496,1.801-0.87,2.3-1.116L461.923,218.084z M418.403,188.698c1.899,0.083,3.716,0.125,5.456,0.125c1.733,0,3.473,0,5.206,0
	c4.54,0,8.226-0.289,11.033-0.868c2.807-0.577,5.002-1.32,6.568-2.232c1.574-0.908,2.611-1.941,3.103-3.099
	c0.499-1.156,0.742-2.355,0.742-3.596c0-3.14-1.256-5.496-3.776-7.066c-2.527-1.57-5.645-2.355-9.361-2.355
	c-3.065,0-5.751,0.537-8.059,1.612c-2.316,1.075-4.26,2.501-5.827,4.277c-1.574,1.778-2.792,3.823-3.663,6.137
	C418.963,183.946,418.486,186.301,418.403,188.698z M537.05,212.129c0,6.618-0.866,12.255-2.603,16.928
	c-1.733,4.665-4.151,8.449-7.253,11.343c-3.099,2.891-6.776,4.998-11.033,6.322c-4.257,1.32-8.865,1.983-13.825,1.983
	c-6.281,0-11.279-0.515-15.002-1.548c-3.719-1.037-6.406-1.88-8.055-2.543l2.229-6.697c0.496,0.166,1.302,0.477,2.418,0.931
	c1.116,0.454,2.543,0.889,4.279,1.302c1.737,0.412,3.719,0.787,5.952,1.116c2.232,0.329,4.669,0.496,7.314,0.496
	c2.974,0,6.077-0.31,9.3-0.927c3.224-0.621,6.175-1.903,8.865-3.844c2.683-1.945,4.915-4.711,6.693-8.309
	c1.778-3.594,2.667-8.407,2.667-14.442v-2.978c-2.649,4.298-6.016,7.563-10.106,9.796c-4.09,2.232-8.865,3.349-14.321,3.349
	c-5.127,0-9.713-0.829-13.761-2.482c-4.052-1.65-7.461-3.946-10.227-6.879c-2.773-2.936-4.9-6.364-6.387-10.291
	s-2.232-8.161-2.232-12.707c0-4.465,0.806-8.659,2.418-12.584c1.612-3.926,3.863-7.355,6.758-10.291
	c2.894-2.932,6.341-5.248,10.352-6.943c4.011-1.693,8.453-2.541,13.33-2.541c4.132,0,7.976,0.6,11.529,1.797
	c3.553,1.199,6.697,2.913,9.425,5.146c2.724,2.23,4.998,4.958,6.818,8.182c1.816,3.224,3.099,6.862,3.844,10.91
	c0.163,1.16,0.31,2.501,0.431,4.03c0.125,1.53,0.185,3.286,0.185,5.269V212.129z M480.765,192.047c0,3.719,0.556,7.149,1.672,10.29
	c1.116,3.14,2.728,5.827,4.835,8.059s4.627,3.965,7.563,5.206c2.932,1.241,6.262,1.862,9.981,1.862c3.636,0,6.92-0.662,9.856-1.986
	c2.932-1.32,5.456-3.118,7.564-5.392c2.107-2.274,3.719-4.96,4.835-8.059c1.116-3.099,1.672-6.466,1.672-10.104
	c0-3.636-0.579-6.983-1.737-10.042c-1.158-3.057-2.77-5.704-4.835-7.936c-2.066-2.23-4.586-3.986-7.563-5.269
	c-2.974-1.281-6.239-1.922-9.792-1.922c-3.719,0-7.049,0.662-9.981,1.985c-2.936,1.322-5.456,3.122-7.563,5.394
	c-2.107,2.274-3.719,4.958-4.835,8.057C481.321,185.289,480.765,188.575,480.765,192.047z M556.396,197.376
	c0.908,6.368,3.553,11.283,7.934,14.752c4.381,3.473,10.167,5.21,17.356,5.21c4.219,0,7.79-0.598,10.727-1.797
	c2.932-1.196,5.187-2.251,6.758-3.163l3.594,5.952c-0.662,0.416-1.653,0.972-2.974,1.672c-1.324,0.704-2.936,1.389-4.836,2.047
	c-1.903,0.662-4.052,1.218-6.447,1.676c-2.399,0.45-5.044,0.681-7.934,0.681c-4.548,0-8.827-0.681-12.834-2.047
	c-4.011-1.362-7.522-3.367-10.537-6.012c-3.019-2.645-5.395-5.91-7.128-9.796c-1.737-3.886-2.607-8.388-2.607-13.513
	c0-4.96,0.829-9.486,2.482-13.576c1.653-4.092,3.965-7.603,6.943-10.539c2.974-2.932,6.508-5.206,10.602-6.818
	c4.09-1.612,8.574-2.418,13.451-2.418c4.132,0,7.749,0.477,10.848,1.425c3.099,0.952,5.683,2.295,7.749,4.03
	c2.066,1.737,3.613,3.782,4.65,6.137c1.033,2.357,1.547,4.898,1.547,7.626c0,2.728-0.556,5.229-1.672,7.501
	c-1.116,2.274-3.019,4.257-5.702,5.95c-2.686,1.695-6.285,3.019-10.787,3.969c-4.506,0.95-10.189,1.423-17.049,1.423
	c-2.645,0-5.063-0.019-7.253-0.061C561.084,197.645,558.791,197.543,556.396,197.376z M556.146,190.931
	c2.232,0.166,4.404,0.269,6.512,0.31c2.107,0.042,4.317,0.061,6.633,0.061c5.619,0,10.246-0.35,13.886-1.054
	c3.636-0.7,6.508-1.631,8.615-2.789s3.576-2.52,4.4-4.092c0.825-1.568,1.241-3.224,1.241-4.958c0-2.314-0.477-4.257-1.426-5.829
	c-0.95-1.568-2.232-2.83-3.844-3.78s-3.428-1.633-5.452-2.047c-2.028-0.412-4.113-0.619-6.262-0.619
	c-3.886,0-7.318,0.681-10.291,2.045c-2.974,1.364-5.475,3.205-7.499,5.517c-2.028,2.316-3.598,4.96-4.714,7.936
	C556.828,184.606,556.23,187.707,556.146,190.931z M680,192.047c0,4.463-0.825,8.659-2.478,12.582
	c-1.653,3.927-3.946,7.359-6.882,10.291c-2.932,2.936-6.425,5.252-10.477,6.943c-4.049,1.691-8.472,2.543-13.265,2.543
	s-9.217-0.851-13.265-2.543c-4.048-1.691-7.545-4.007-10.477-6.943c-2.932-2.932-5.229-6.364-6.879-10.291
	c-1.657-3.924-2.482-8.12-2.482-12.582c0-4.546,0.825-8.782,2.482-12.709c1.65-3.924,3.946-7.355,6.879-10.29
	c2.932-2.934,6.428-5.227,10.477-6.882c4.049-1.652,8.472-2.478,13.265-2.478s9.217,0.827,13.265,2.478
	c4.052,1.655,7.545,3.948,10.477,6.882c2.936,2.934,5.229,6.366,6.882,10.29C679.175,183.265,680,187.501,680,192.047z
	 M671.199,192.047c0-3.553-0.579-6.882-1.737-9.981s-2.811-5.806-4.96-8.122c-2.149-2.312-4.711-4.111-7.685-5.392
	c-2.978-1.281-6.285-1.922-9.921-1.922s-6.943,0.641-9.917,1.922c-2.978,1.281-5.539,3.08-7.688,5.392
	c-2.149,2.316-3.803,5.023-4.957,8.122c-1.162,3.099-1.737,6.428-1.737,9.981c0,3.471,0.598,6.756,1.797,9.854
	c1.196,3.099,2.853,5.785,4.96,8.059s4.646,4.071,7.624,5.395c2.974,1.32,6.281,1.983,9.917,1.983s6.943-0.662,9.921-1.983
	c2.974-1.324,5.535-3.121,7.685-5.395c2.149-2.274,3.803-4.96,4.96-8.059S671.199,195.518,671.199,192.047z"/>
<text transform="matrix(1 0 0 1 20 29)" class="st3">IMAGEN 980x380</text>
</svg>
