<?xml version="1.0" encoding="utf-8"?>
<svg version="1.1" id="Logo_RTMG_Flat" xmlns="http://www.w3.org/2000/svg" xmlns:xlink="http://www.w3.org/1999/xlink" x="0px" y="0px" viewBox="0 0 128 128" style="enable-background:new 0 0 128 128;" xml:space="preserve">
<style type="text/css">
	.st0{fill:#079648;}
	.st1{fill:#56A9DA;}
	.st2{fill:#DC1F26;}
	.st3{fill:#ECEDEE;}
	.st4{fill:#434141;}
</style>
<path class="st0" d="M33.868,119.949c-0.625,0-1.258-0.159-1.838-0.494c-16.117-9.31-27.37-25.087-30.874-43.286
	c-0.384-1.996,0.923-3.927,2.919-4.311c1.997-0.384,3.926,0.922,4.311,2.919c3.1,16.1,13.06,30.061,27.327,38.302
	c1.761,1.017,2.363,3.269,1.346,5.029C36.377,119.289,35.14,119.949,33.868,119.949z"/>
<path class="st1" d="M64,128c-7.16,0-14.192-1.175-20.9-3.491c-1.922-0.664-2.942-2.76-2.278-4.681
	c0.664-1.922,2.759-2.941,4.682-2.278c5.933,2.049,12.157,3.088,18.496,3.088c9.967,0,19.765-2.624,28.337-7.587
	c1.759-1.019,4.012-0.418,5.031,1.341c1.019,1.759,0.418,4.012-1.341,5.031C86.335,125.033,75.261,128,64,128z M123.213,56.149
	c-1.728,0-3.269-1.222-3.61-2.982c-3.117-16.097-13.091-30.048-27.366-38.274c-1.762-1.015-2.367-3.266-1.351-5.028
	c1.015-1.762,3.267-2.367,5.028-1.351c16.126,9.294,27.395,25.059,30.918,43.254c0.387,1.996-0.918,3.928-2.915,4.314
	C123.681,56.127,123.445,56.149,123.213,56.149z"/>
<path class="st2" d="M33.768,15.477c-1.269,0-2.504-0.657-3.187-1.834c-1.021-1.758-0.423-4.011,1.336-5.032
	C41.623,2.978,52.717,0,64,0c7.138,0,14.149,1.168,20.839,3.47c1.922,0.662,2.944,2.757,2.283,4.679
	c-0.662,1.922-2.756,2.946-4.679,2.283C76.525,8.395,70.32,7.363,64,7.363c-9.987,0-19.803,2.634-28.387,7.616
	C35.032,15.317,34.395,15.477,33.768,15.477z"/>
<path class="st3" d="M103.516,113.256c-1.03,0-2.054-0.43-2.782-1.269c-1.333-1.536-1.168-3.861,0.368-5.193
	C113.517,96.021,120.637,80.423,120.637,64l0-0.122c0-2.033,1.648-3.681,3.681-3.681S128,61.845,128,63.878l0,0.097
	c0,18.582-8.045,36.207-22.073,48.38C105.231,112.96,104.371,113.256,103.516,113.256z M3.681,67.743
	C1.648,67.743,0,66.094,0,64.061V64c0-18.533,8.027-36.142,22.024-48.313c1.534-1.335,3.86-1.172,5.194,0.362
	c1.334,1.534,1.172,3.86-0.362,5.194C14.467,32.015,7.363,47.599,7.363,64v0.061C7.363,66.094,5.715,67.743,3.681,67.743z"/>
<path class="st4" d="M45.017,24.808c7.011,0,11.702,5.339,11.702,11.648c0,4.53-3.074,8.683-6.417,9.815l5.177,10.785
	c0.27,0.593,0.431,1.186,0.431,1.779c0,2.103-1.834,3.613-3.667,3.613c-1.186,0-2.481-0.593-3.182-2.05l-6.256-12.618h-3.074v10.785
	c0,2.534-1.294,3.883-3.667,3.883c-2.319,0-3.613-1.348-3.613-3.883V29.069c0-2.858,1.402-4.261,4.26-4.261H45.017z M39.732,41.364
	h5.339c2.858,0,4.422-2.157,4.422-4.746c0-2.481-1.564-4.584-4.422-4.584h-5.339V41.364z M93.147,24.808
	c2.588,0,3.937,1.241,3.937,3.613s-1.348,3.613-3.937,3.613h-4.584v26.478c0,2.588-1.132,3.937-3.559,3.937
	c-2.373,0-3.667-1.294-3.667-3.829V32.035h-4.476c-2.642,0-3.937-1.187-3.937-3.667c0-2.373,1.294-3.56,3.937-3.56H93.147z
	 M85.563,96.123c6.143,0,9.05-2.861,9.988-6.002H84.765c-2.016,0-3.095-1.079-3.095-3.048c0-1.876,1.079-2.954,3.095-2.954h14.209
	c2.157,0,3.376,1.454,3.376,3.236c0,7.831-7.597,15.053-16.787,15.053c-9.707,0-17.069-6.753-17.069-16.788
	s7.362-17.21,17.069-17.21c4.502,0,8.769,1.407,11.535,4.127c1.032,0.985,1.36,1.829,1.36,2.626c0,1.688-1.501,3.189-3.189,3.189
	c-0.938,0-1.735-0.422-2.532-1.219c-1.641-1.642-4.502-2.392-7.174-2.392c-5.955,0-10.738,4.455-10.738,10.879
	C74.824,91.95,79.607,96.123,85.563,96.123z M53.134,71.41c0.704-1.641,1.829-2.438,3.517-2.438c1.829,0,3.47,1.125,3.47,3.798
	v25.744c0,2.298-0.985,3.423-3.095,3.423s-3.095-1.126-3.095-3.423V85.197L47.6,99.921c-0.563,1.266-1.876,2.017-3.142,2.017
	c-1.219,0-2.673-0.751-3.236-2.017l-6.237-14.724v13.317c0,2.298-0.985,3.423-3.095,3.423c-2.11,0-3.095-1.126-3.095-3.423V72.77
	c0-2.673,1.594-3.798,3.47-3.798c1.688,0,2.814,0.797,3.517,2.438l8.675,20.211L53.134,71.41z"/>
</svg>
