<?xml version="1.0" encoding="utf-8"?>
<svg version="1.1" id="image_1920×1080" xmlns="http://www.w3.org/2000/svg" xmlns:xlink="http://www.w3.org/1999/xlink" x="0px" y="0px" viewBox="0 0 1920 1080" style="enable-background:new 0 0 1920 1080;" xml:space="preserve">
<style type="text/css">
	.st0{opacity:1.00;fill:#FFFFFF;fill-opacity:0.00;}
	.st1{opacity:1.00;fill:#000000;fill-opacity:0.20;}
	.st2{opacity:1.00;fill:#EDD11D;fill-opacity:1.00;}
	.st3{opacity:1.00;font-family:"Roboto",sans-serif;font-size:36px;font-weight:400;fill:#000000;fill-opacity:1.00;}
	.st4{opacity:1.00;font-size:36px;font-weight:500;fill:#EDD11D;fill-opacity:1.00;}
</style>
<rect class="st0" width="1920" height="1080"/>
<path class="st1" d="M60,1068H12l0-48H0l0,60h60L60,1068z M1860,1080h60v-60h-12v48h-48V1080z M1860,12l48,0v48h12V0l-60,0V12z M60,12H12v48H0
	V0h60V12z"/>
<path class="st2" d="M1194.408,182.087c4.037,0,7.446,1.396,10.234,4.177c2.782,2.788,4.174,6.197,4.174,10.231
	c0,4.04-1.392,7.449-4.174,10.234c-2.788,2.785-6.197,4.174-10.234,4.174s-7.446-1.389-10.231-4.174
	c-2.785-2.785-4.177-6.194-4.177-10.234c0-4.034,1.392-7.443,4.177-10.231C1186.962,183.483,1190.371,182.087,1194.408,182.087z
	 M1182.508,240.137c0-3.894,1.112-6.713,3.339-8.456c2.227-1.74,5.359-2.61,9.396-2.61c2.508,0,4.805,0.312,6.892,0.94
	c2.09,0.624,3.479,1.08,4.177,1.357v102.526h-23.804V240.137z M1315.309,191.066c0-3.757,1.077-6.541,3.237-8.351
	c2.157-1.807,5.254-2.715,9.291-2.715c2.508,0,4.805,0.312,6.892,0.94c2.087,0.624,3.479,1.08,4.177,1.357v94.175
	c0,10.161-1.431,18.996-4.282,26.516c-2.855,7.52-6.787,13.784-11.795,18.792c-5.012,5.015-10.932,8.775-17.75,11.279
	c-6.822,2.504-14.271,3.76-22.342,3.76c-8.217,0-15.765-1.396-22.657-4.18c-6.892-2.778-12.84-6.608-17.852-11.483
	c-5.012-4.875-8.947-10.718-11.799-17.543c-2.855-6.819-4.282-14.195-4.282-22.132c0-8.071,1.357-15.482,4.072-22.237
	c2.715-6.752,6.474-12.598,11.276-17.54c4.805-4.939,10.441-8.772,16.916-11.486c6.471-2.715,13.535-4.072,21.195-4.072
	c8.071,0,15.17,1.568,21.297,4.7c6.124,3.132,10.929,6.927,14.408,11.381V191.066z M1315.309,281.481
	c0-4.728-0.803-9.186-2.399-13.363c-1.603-4.177-3.795-7.794-6.579-10.859c-2.785-3.059-6.159-5.461-10.126-7.204
	c-3.967-1.736-8.322-2.61-13.051-2.61c-4.875,0-9.259,0.873-13.156,2.61c-3.9,1.743-7.277,4.11-10.129,7.102
	c-2.855,2.995-5.047,6.576-6.576,10.753c-1.533,4.174-2.297,8.702-2.297,13.57c0,4.875,0.765,9.361,2.297,13.471
	c1.529,4.104,3.722,7.653,6.576,10.648c2.852,2.995,6.229,5.359,10.129,7.099c3.897,1.74,8.281,2.606,13.156,2.606
	c4.728,0,9.084-0.835,13.051-2.504c3.967-1.67,7.341-3.964,10.126-6.889s4.977-6.474,6.579-10.648
	C1314.506,291.084,1315.309,286.493,1315.309,281.481z M1452.712,326.171c-1.121,0.695-2.855,1.67-5.225,2.919
	c-2.371,1.255-5.327,2.441-8.87,3.549c-3.556,1.115-7.66,2.09-12.324,2.925c-4.665,0.835-9.775,1.255-15.345,1.255
	c-7.8,0-15.077-1.185-21.819-3.549c-6.755-2.371-12.668-5.882-17.754-10.546c-5.085-4.665-9.081-10.368-12.006-17.123
	c-2.922-6.755-4.384-14.516-4.384-23.282c0-8.354,1.424-15.976,4.279-22.867c2.852-6.889,6.822-12.805,11.907-17.747
	c5.072-4.939,11.063-8.772,17.958-11.486c6.882-2.715,14.44-4.072,22.648-4.072c7.239,0,13.65,0.94,19.219,2.82
	c5.557,1.88,10.26,4.384,14.096,7.516c3.823,3.132,6.717,6.787,8.667,10.964c1.937,4.177,2.919,8.635,2.919,13.363
	c0,4.875-0.905,9.294-2.715,13.261c-1.81,3.967-5.009,7.379-9.61,10.231c-4.588,2.855-10.782,5.085-18.582,6.681
	c-7.8,1.599-17.677,2.402-29.645,2.402c-2.791,0-5.404-0.032-7.838-0.108c-2.434-0.064-5.047-0.172-7.825-0.312
	c1.109,7.099,4.55,12.84,10.336,17.231c5.773,4.384,14.019,6.576,24.738,6.576c3.62,0,6.959-0.28,10.03-0.835
	c3.059-0.554,5.812-1.255,8.246-2.09c2.434-0.835,4.524-1.67,6.258-2.504c1.746-0.835,3.033-1.466,3.874-1.88L1452.712,326.171z
	 M1379.416,276.679c3.199,0.14,6.258,0.21,9.189,0.21c2.919,0,5.85,0,8.768,0c7.647,0,13.854-0.487,18.582-1.462
	c4.728-0.972,8.424-2.224,11.063-3.76c2.651-1.529,4.397-3.269,5.225-5.219c0.841-1.947,1.249-3.967,1.249-6.057
	c0-5.289-2.116-9.256-6.36-11.901c-4.257-2.645-9.508-3.967-15.765-3.967c-5.162,0-9.686,0.905-13.573,2.715
	c-3.9,1.81-7.175,4.212-9.814,7.204c-2.651,2.995-4.703,6.439-6.168,10.336C1380.359,268.676,1379.556,272.643,1379.416,276.679z
	 M1579.243,316.141c0,11.145-1.459,20.64-4.384,28.51c-2.919,7.857-6.991,14.23-12.216,19.105
	c-5.219,4.869-11.413,8.418-18.582,10.648c-7.169,2.224-14.931,3.339-23.285,3.339c-10.578,0-18.996-0.867-25.267-2.606
	c-6.264-1.746-10.789-3.167-13.567-4.282l3.753-11.279c0.835,0.28,2.192,0.803,4.072,1.568c1.88,0.765,4.282,1.498,7.207,2.192
	c2.925,0.695,6.264,1.325,10.024,1.88c3.76,0.554,7.864,0.835,12.318,0.835c5.009,0,10.234-0.523,15.663-1.561
	c5.429-1.045,10.4-3.205,14.931-6.474c4.518-3.275,8.278-7.934,11.273-13.994c2.995-6.054,4.493-14.16,4.493-24.324v-5.015
	c-4.461,7.239-10.132,12.739-17.021,16.498c-6.889,3.76-14.931,5.64-24.12,5.64c-8.635,0-16.358-1.396-23.177-4.18
	c-6.825-2.778-12.566-6.646-17.225-11.585c-4.671-4.945-8.252-10.718-10.757-17.333s-3.76-13.745-3.76-21.402
	c0-7.519,1.357-14.583,4.072-21.195c2.715-6.611,6.506-12.388,11.381-17.333c4.875-4.939,10.68-8.839,17.435-11.693
	c6.755-2.852,14.236-4.279,22.45-4.279c6.959,0,13.433,1.01,19.417,3.027c5.984,2.02,11.279,4.907,15.874,8.667
	c4.588,3.757,8.418,8.351,11.483,13.78c3.059,5.429,5.219,11.556,6.474,18.375c0.274,1.953,0.522,4.212,0.726,6.787
	c0.21,2.578,0.312,5.534,0.312,8.874V316.141z M1484.446,282.319c0,6.264,0.937,12.041,2.817,17.33s4.595,9.814,8.144,13.573
	c3.549,3.76,7.793,6.678,12.739,8.768c4.939,2.09,10.546,3.135,16.81,3.135c6.124,0,11.655-1.115,16.6-3.346
	c4.939-2.224,9.189-5.251,12.739-9.081s6.264-8.354,8.144-13.573s2.817-10.891,2.817-17.018c0-6.124-0.975-11.76-2.925-16.912
	c-1.95-5.149-4.665-9.606-8.144-13.366c-3.479-3.757-7.723-6.713-12.738-8.874c-5.009-2.157-10.508-3.237-16.492-3.237
	c-6.264,0-11.872,1.115-16.81,3.342c-4.945,2.227-9.189,5.257-12.739,9.084c-3.549,3.83-6.264,8.351-8.144,13.57
	C1485.383,270.938,1484.446,276.472,1484.446,282.319z M1611.825,291.295c1.529,10.725,5.984,19.003,13.363,24.846
	c7.379,5.85,17.123,8.775,29.23,8.775c7.105,0,13.121-1.007,18.066-3.027c4.939-2.014,8.737-3.792,11.381-5.327l6.054,10.024
	c-1.115,0.701-2.785,1.638-5.009,2.817c-2.23,1.185-4.945,2.339-8.144,3.448c-3.205,1.115-6.825,2.052-10.859,2.823
	c-4.04,0.758-8.495,1.147-13.363,1.147c-7.66,0-14.867-1.147-21.615-3.448c-6.755-2.294-12.668-5.671-17.747-10.126
	c-5.085-4.454-9.087-9.954-12.006-16.498c-2.925-6.544-4.391-14.128-4.391-22.759c0-8.354,1.396-15.976,4.18-22.864
	c2.785-6.892,6.678-12.805,11.693-17.75c5.009-4.939,10.961-8.768,17.856-11.483c6.889-2.715,14.44-4.072,22.654-4.072
	c6.959,0,13.051,0.803,18.27,2.399c5.219,1.603,9.571,3.865,13.051,6.787c3.479,2.925,6.086,6.369,7.832,10.336
	c1.74,3.97,2.606,8.249,2.606,12.844c0,4.595-0.937,8.807-2.817,12.633c-1.88,3.83-5.085,7.169-9.603,10.021
	c-4.525,2.855-10.585,5.085-18.168,6.685c-7.59,1.599-17.161,2.396-28.714,2.396c-4.454,0-8.526-0.032-12.216-0.102
	C1619.721,291.747,1615.859,291.575,1611.825,291.295z M1611.405,280.439c3.76,0.28,7.418,0.452,10.967,0.523
	s7.271,0.102,11.171,0.102c9.463,0,17.256-0.589,23.387-1.775c6.124-1.179,10.961-2.747,14.51-4.696
	c3.549-1.95,6.022-4.244,7.411-6.892c1.389-2.641,2.09-5.429,2.09-8.351c0-3.897-0.803-7.169-2.402-9.817
	c-1.599-2.641-3.76-4.767-6.474-6.366c-2.715-1.599-5.773-2.75-9.183-3.447c-3.416-0.695-6.927-1.042-10.546-1.042
	c-6.544,0-12.324,1.147-17.333,3.444c-5.009,2.297-9.221,5.397-12.63,9.291c-3.416,3.9-6.06,8.354-7.94,13.366
	C1612.552,269.788,1611.545,275.01,1611.405,280.439z M1820,282.319c0,7.516-1.389,14.583-4.174,21.192
	c-2.785,6.615-6.646,12.394-11.591,17.333c-4.939,4.945-10.82,8.845-17.645,11.693c-6.819,2.848-14.268,4.282-22.342,4.282
	s-15.523-1.434-22.342-4.282s-12.707-6.748-17.645-11.693c-4.939-4.939-8.807-10.718-11.585-17.333
	c-2.791-6.608-4.18-13.675-4.18-21.192c0-7.656,1.389-14.79,4.18-21.405c2.778-6.608,6.646-12.388,11.585-17.33
	c4.939-4.942,10.827-8.804,17.645-11.591c6.818-2.782,14.268-4.174,22.342-4.174s15.523,1.392,22.342,4.174
	c6.825,2.788,12.707,6.65,17.645,11.591c4.945,4.942,8.807,10.722,11.591,17.33C1818.611,267.529,1820,274.663,1820,282.319z
	 M1805.178,282.319c0-5.984-0.975-11.591-2.925-16.81c-1.95-5.219-4.735-9.779-8.354-13.678c-3.62-3.894-7.934-6.924-12.942-9.081
	c-5.015-2.157-10.585-3.237-16.708-3.237s-11.693,1.08-16.702,3.237c-5.015,2.157-9.329,5.187-12.949,9.081
	c-3.62,3.9-6.404,8.459-8.348,13.678c-1.956,5.219-2.925,10.827-2.925,16.81c0,5.847,1.007,11.378,3.027,16.597
	c2.014,5.219,4.805,9.743,8.354,13.573c3.549,3.83,7.825,6.857,12.84,9.087c5.009,2.224,10.578,3.339,16.702,3.339
	s11.693-1.115,16.708-3.339c5.009-2.23,9.323-5.257,12.942-9.087c3.62-3.83,6.404-8.354,8.354-13.573
	C1804.203,293.697,1805.178,288.166,1805.178,282.319z"/>
<text transform="matrix(1 0 0 1 50 70)" class="st3">IMAGEN 1920×1080</text>
<text transform="matrix(1 0 0 1 1358 208)" class="st3 st4">XTOC-02</text>
</svg>
