<?xml version="1.0" encoding="utf-8"?>
<svg version="1.1" id="image_190x074" xmlns="http://www.w3.org/2000/svg" xmlns:xlink="http://www.w3.org/1999/xlink" x="0px" y="0px" viewBox="0 0 190 74" style="enable-background:new 0 0 190 74;" xml:space="preserve">
<style type="text/css">
	.st0{opacity:1.00;fill:#FFFFFF;fill-opacity:1.00;}
	.st1{opacity:1.00;fill:#000000;fill-opacity:0.12;}
	.st2{opacity:1.00;fill:#EDD11D;fill-opacity:1.00;}
	.st3{opacity:1.00;font-family:"Roboto",sans-serif;font-size:10px;font-weight:400;fill:#000000;fill-opacity:1.00;}
</style>
<rect class="st0" width="190" height="74"/>
<path class="st1" d="M8,1.6H1.6V8H0V0h8V1.6z M182,1.6l6.4,0V8h1.6V0l-8,0V1.6z M182,74h8v-8h-1.6v6.4l-6.4,0V74z M8,72.4H1.6l0-6.4H0l0,8h8
	L8,72.4z"/>
<path class="st2" d="M59.822,25.859c0.465,0,0.857,0.161,1.178,0.481c0.32,0.321,0.48,0.713,0.48,1.178
	c0,0.465-0.16,0.858-0.48,1.178c-0.321,0.321-0.713,0.48-1.178,0.48c-0.465,0-0.857-0.16-1.178-0.48
	c-0.321-0.321-0.481-0.713-0.481-1.178c0-0.464,0.16-0.857,0.481-1.178C58.965,26.019,59.357,25.859,59.822,25.859z M58.452,32.541
	c0-0.448,0.128-0.773,0.384-0.973c0.256-0.2,0.617-0.3,1.082-0.3c0.289,0,0.553,0.036,0.793,0.108
	c0.241,0.072,0.401,0.124,0.481,0.156v11.802h-2.74V32.541z M73.739,26.892c0-0.432,0.124-0.753,0.373-0.961
	c0.248-0.208,0.605-0.312,1.07-0.312c0.289,0,0.553,0.036,0.793,0.108c0.24,0.072,0.401,0.124,0.481,0.156v10.841
	c0,1.17-0.165,2.187-0.493,3.052c-0.329,0.866-0.781,1.587-1.358,2.163c-0.577,0.577-1.258,1.01-2.043,1.298
	c-0.785,0.288-1.643,0.433-2.572,0.433c-0.946,0-1.815-0.161-2.608-0.481c-0.793-0.32-1.478-0.761-2.055-1.322
	c-0.577-0.561-1.03-1.234-1.358-2.019c-0.329-0.785-0.493-1.634-0.493-2.548c0-0.929,0.156-1.782,0.469-2.56
	c0.313-0.777,0.745-1.45,1.298-2.019c0.553-0.569,1.202-1.01,1.947-1.322c0.745-0.312,1.558-0.469,2.44-0.469
	c0.929,0,1.746,0.18,2.452,0.541c0.705,0.361,1.258,0.797,1.659,1.31V26.892z M73.739,37.3c0-0.544-0.092-1.057-0.276-1.538
	c-0.184-0.481-0.437-0.897-0.757-1.25c-0.321-0.352-0.709-0.629-1.166-0.829c-0.457-0.2-0.958-0.3-1.502-0.3
	c-0.561,0-1.066,0.1-1.514,0.3c-0.449,0.201-0.838,0.473-1.166,0.818c-0.329,0.345-0.581,0.757-0.757,1.238
	c-0.176,0.48-0.264,1.002-0.264,1.562c0,0.561,0.088,1.078,0.264,1.551c0.176,0.472,0.428,0.881,0.757,1.226
	c0.328,0.345,0.717,0.617,1.166,0.817c0.449,0.2,0.953,0.3,1.514,0.3c0.544,0,1.046-0.096,1.502-0.288
	c0.457-0.192,0.845-0.456,1.166-0.793c0.321-0.337,0.573-0.745,0.757-1.226C73.647,38.406,73.739,37.877,73.739,37.3z
	 M89.556,42.445c-0.129,0.08-0.329,0.192-0.602,0.336c-0.273,0.145-0.613,0.281-1.021,0.409c-0.409,0.128-0.882,0.241-1.419,0.337
	c-0.537,0.096-1.125,0.145-1.766,0.145c-0.898,0-1.736-0.136-2.512-0.409c-0.778-0.273-1.458-0.677-2.044-1.214
	c-0.585-0.537-1.045-1.194-1.382-1.971c-0.336-0.778-0.505-1.671-0.505-2.68c0-0.962,0.164-1.839,0.493-2.632
	c0.328-0.793,0.785-1.474,1.371-2.043c0.584-0.569,1.273-1.01,2.067-1.322c0.792-0.312,1.662-0.469,2.607-0.469
	c0.833,0,1.571,0.108,2.212,0.325c0.64,0.216,1.181,0.505,1.623,0.865c0.44,0.361,0.773,0.781,0.998,1.262
	c0.223,0.481,0.336,0.994,0.336,1.538c0,0.561-0.104,1.07-0.313,1.527c-0.208,0.457-0.577,0.849-1.106,1.178
	c-0.528,0.329-1.241,0.585-2.139,0.769c-0.898,0.184-2.035,0.277-3.413,0.277c-0.321,0-0.622-0.004-0.902-0.012
	c-0.28-0.007-0.581-0.02-0.901-0.036c0.128,0.817,0.524,1.478,1.19,1.984c0.665,0.505,1.614,0.757,2.848,0.757
	c0.417,0,0.801-0.032,1.155-0.096c0.352-0.064,0.669-0.145,0.949-0.241c0.28-0.096,0.521-0.192,0.72-0.288
	c0.201-0.096,0.349-0.169,0.446-0.216L89.556,42.445z M81.119,36.748c0.368,0.016,0.72,0.024,1.058,0.024c0.336,0,0.673,0,1.009,0
	c0.88,0,1.595-0.056,2.139-0.168c0.544-0.112,0.97-0.256,1.273-0.433c0.305-0.176,0.506-0.376,0.602-0.601
	c0.097-0.224,0.144-0.457,0.144-0.697c0-0.609-0.244-1.065-0.732-1.37c-0.49-0.304-1.094-0.457-1.815-0.457
	c-0.594,0-1.115,0.104-1.562,0.312c-0.449,0.208-0.826,0.485-1.13,0.829c-0.305,0.345-0.541,0.741-0.71,1.19
	C81.228,35.826,81.135,36.283,81.119,36.748z M104.122,41.29c0,1.283-0.168,2.376-0.505,3.282c-0.336,0.904-0.805,1.638-1.406,2.199
	c-0.601,0.56-1.314,0.969-2.139,1.226c-0.825,0.256-1.719,0.384-2.68,0.384c-1.218,0-2.187-0.1-2.909-0.3
	c-0.721-0.201-1.242-0.365-1.562-0.493l0.432-1.298c0.096,0.032,0.252,0.092,0.469,0.18s0.493,0.172,0.83,0.252
	c0.337,0.08,0.721,0.153,1.154,0.216s0.905,0.096,1.418,0.096c0.577,0,1.178-0.06,1.803-0.18c0.625-0.12,1.197-0.369,1.719-0.745
	c0.52-0.377,0.953-0.913,1.298-1.611c0.345-0.697,0.517-1.63,0.517-2.8v-0.577c-0.513,0.833-1.166,1.466-1.959,1.899
	c-0.793,0.433-1.719,0.649-2.777,0.649c-0.994,0-1.883-0.161-2.668-0.481c-0.786-0.32-1.447-0.765-1.983-1.334
	c-0.538-0.569-0.95-1.234-1.238-1.995c-0.288-0.761-0.433-1.582-0.433-2.464c0-0.866,0.156-1.679,0.469-2.44s0.749-1.426,1.31-1.995
	c0.561-0.569,1.229-1.017,2.007-1.346c0.778-0.328,1.639-0.493,2.584-0.493c0.801,0,1.546,0.116,2.235,0.348
	c0.689,0.233,1.298,0.565,1.827,0.998c0.528,0.432,0.969,0.961,1.322,1.586c0.352,0.625,0.601,1.33,0.745,2.115
	c0.032,0.225,0.06,0.485,0.084,0.781c0.024,0.297,0.036,0.637,0.036,1.021V41.29z M93.21,37.397c0,0.721,0.108,1.386,0.324,1.995
	c0.216,0.609,0.529,1.13,0.937,1.562c0.409,0.433,0.897,0.769,1.466,1.009c0.569,0.241,1.214,0.361,1.935,0.361
	c0.705,0,1.342-0.128,1.911-0.385c0.569-0.256,1.058-0.604,1.466-1.045c0.409-0.441,0.721-0.962,0.937-1.562
	s0.324-1.254,0.324-1.959c0-0.705-0.112-1.354-0.337-1.947c-0.224-0.593-0.537-1.106-0.937-1.539
	c-0.401-0.432-0.889-0.773-1.466-1.021c-0.577-0.248-1.21-0.373-1.898-0.373c-0.721,0-1.367,0.128-1.935,0.385
	c-0.569,0.256-1.058,0.605-1.466,1.046c-0.409,0.441-0.721,0.961-0.937,1.562C93.317,36.087,93.21,36.724,93.21,37.397z
	 M107.873,38.43c0.176,1.235,0.689,2.187,1.538,2.86c0.849,0.673,1.971,1.01,3.365,1.01c0.818,0,1.51-0.116,2.08-0.348
	c0.569-0.232,1.006-0.436,1.31-0.613l0.697,1.154c-0.128,0.081-0.321,0.189-0.577,0.324c-0.257,0.136-0.569,0.269-0.937,0.397
	c-0.369,0.128-0.786,0.236-1.25,0.325c-0.465,0.087-0.978,0.132-1.538,0.132c-0.882,0-1.711-0.132-2.488-0.397
	c-0.778-0.264-1.458-0.653-2.043-1.166c-0.585-0.513-1.046-1.146-1.382-1.899c-0.337-0.753-0.505-1.626-0.505-2.62
	c0-0.962,0.161-1.839,0.481-2.632c0.321-0.793,0.769-1.474,1.346-2.043c0.577-0.569,1.262-1.009,2.055-1.322
	c0.793-0.312,1.662-0.469,2.608-0.469c0.801,0,1.502,0.092,2.103,0.276c0.601,0.184,1.102,0.445,1.502,0.781
	c0.401,0.337,0.701,0.733,0.902,1.19c0.2,0.457,0.3,0.95,0.3,1.478c0,0.529-0.108,1.014-0.324,1.454
	c-0.216,0.441-0.585,0.825-1.105,1.154c-0.521,0.329-1.218,0.585-2.091,0.77c-0.874,0.184-1.975,0.276-3.305,0.276
	c-0.513,0-0.982-0.004-1.406-0.012C108.782,38.482,108.337,38.462,107.873,38.43z M107.824,37.18
	c0.433,0.032,0.854,0.052,1.262,0.06s0.837,0.012,1.286,0.012c1.089,0,1.986-0.068,2.692-0.204c0.705-0.136,1.262-0.316,1.67-0.541
	c0.409-0.224,0.693-0.489,0.853-0.793c0.16-0.304,0.241-0.625,0.241-0.961c0-0.449-0.092-0.825-0.277-1.13
	c-0.184-0.304-0.433-0.549-0.745-0.733s-0.665-0.317-1.057-0.397c-0.393-0.08-0.797-0.12-1.214-0.12
	c-0.753,0-1.419,0.132-1.995,0.396c-0.577,0.264-1.061,0.621-1.454,1.07c-0.393,0.449-0.698,0.962-0.914,1.539
	C107.956,35.954,107.84,36.555,107.824,37.18z M131.837,37.397c0,0.865-0.16,1.679-0.48,2.439c-0.321,0.761-0.765,1.427-1.334,1.995
	c-0.569,0.569-1.246,1.018-2.031,1.346c-0.785,0.328-1.642,0.493-2.572,0.493s-1.787-0.165-2.572-0.493s-1.463-0.777-2.031-1.346
	c-0.569-0.569-1.014-1.234-1.334-1.995c-0.321-0.761-0.481-1.574-0.481-2.439c0-0.881,0.16-1.703,0.481-2.464
	c0.32-0.761,0.765-1.426,1.334-1.995s1.246-1.013,2.031-1.334c0.785-0.32,1.642-0.48,2.572-0.48s1.787,0.16,2.572,0.48
	c0.786,0.321,1.463,0.765,2.031,1.334c0.569,0.569,1.014,1.234,1.334,1.995C131.677,35.694,131.837,36.515,131.837,37.397z
	 M130.13,37.397c0-0.689-0.112-1.334-0.337-1.935s-0.545-1.126-0.962-1.575c-0.417-0.448-0.913-0.797-1.49-1.045
	c-0.577-0.248-1.218-0.373-1.923-0.373s-1.346,0.124-1.923,0.373c-0.577,0.248-1.074,0.597-1.491,1.045
	c-0.417,0.449-0.737,0.974-0.961,1.575c-0.225,0.601-0.337,1.246-0.337,1.935c0,0.673,0.116,1.31,0.348,1.911
	c0.232,0.601,0.553,1.122,0.962,1.562c0.409,0.441,0.901,0.789,1.478,1.046c0.577,0.256,1.218,0.384,1.923,0.384
	s1.346-0.128,1.923-0.384c0.577-0.257,1.073-0.605,1.49-1.046c0.417-0.441,0.737-0.962,0.962-1.562S130.13,38.07,130.13,37.397z"/>
<text transform="matrix(1 0 0 1 6 13)" class="st3">IMAGEN 190x074</text>
</svg>
