<?xml version="1.0" encoding="utf-8"?>
<!-- Generator: Adobe Illustrator 21.0.2, SVG Export Plug-In . SVG Version: 6.00 Build 0)  -->
<svg version="1.1" id="Capa_1" xmlns="http://www.w3.org/2000/svg" xmlns:xlink="http://www.w3.org/1999/xlink" x="0px" y="0px" viewBox="0 0 60 60" style="enable-background:new 0 0 60 60;" xml:space="preserve">
<style type="text/css">
	.st0{fill-rule:evenodd;clip-rule:evenodd;fill:#001D48;}
</style>
<path class="st0" d="M39.73,4.29l1.13-2.63C41,1.32,41.4,1.16,41.74,1.3c0.34,0.15,0.5,0.54,0.36,0.88l-1.13,2.63
	c1.83,0.84,3.55,1.88,5.12,3.1c4.42,3.42,7.73,8.23,9.27,13.76c0.64,2.26,1.02,4.67,1.02,7.11c0,2.43-0.38,4.73-0.99,6.94
	l-0.01,0.04c-0.02,0.07-0.04,0.14-0.06,0.21h0c-1.56,5.5-4.87,10.27-9.28,13.67c-4.45,3.43-10.02,5.47-16.06,5.47
	c-1.81,0-3.59-0.19-5.31-0.54c-1.54-0.32-3.03-0.76-4.45-1.33l-2.18,5.09c-0.15,0.34-0.54,0.5-0.88,0.36
	c-0.34-0.15-0.5-0.54-0.36-0.88l2.18-5.09c-3.45-1.59-6.51-3.9-8.96-6.75c-2.58-2.99-4.49-6.56-5.53-10.49l0,0
	c-0.56-2.14-0.88-4.35-0.88-6.69c0-2.52,0.37-5.02,1.05-7.35h0c1.57-5.44,4.84-10.15,9.2-13.52c4.46-3.45,10.04-5.5,16.11-5.5
	C33.42,2.42,36.71,3.08,39.73,4.29L39.73,4.29z M41.18,6.41c0.87,1.74,1.1,4.48,0.72,7.91c-0.34,3.02-1.14,6.57-2.37,10.42
	c4.89,2.54,8.88,5.26,11.44,7.78c1.41,1.37,2.38,2.69,2.82,3.86c0.08-0.24,0.15-0.48,0.22-0.72c0.61-2.16,0.94-4.4,0.94-6.81
	c0-2.15-0.25-4.31-0.77-6.35h0c-1.41-5.44-4.6-10.17-8.92-13.51C44,8.01,42.63,7.14,41.18,6.41L41.18,6.41z M52.27,40.1
	c-3.05,1.72-10.12,1.06-18.48-1.6l-0.03,0.06c-4.25,8.15-9.16,13.49-12.19,13.75c1.09,0.39,2.22,0.71,3.38,0.95
	c1.62,0.33,3.3,0.51,5.04,0.51c5.74,0,11.03-1.93,15.24-5.18C48.15,46.33,50.57,43.43,52.27,40.1L52.27,40.1z M18.47,50.97
	c-1.49-3.23-0.82-10.11,1.7-18.18c-5.72-3.02-10.16-6.29-12.42-9.14c-0.77-0.97-1.27-1.94-1.5-2.8c-0.17,0.52-0.33,1.06-0.47,1.6
	C5.26,24.51,5,26.68,5,28.85c0,2.33,0.32,4.51,0.89,6.6l0.01,0.04l0,0c1,3.59,2.78,6.85,5.15,9.59
	C13.11,47.49,15.63,49.5,18.47,50.97L18.47,50.97z M7.74,17.34c3.2-1.43,10.05-0.77,18.09,1.74c3.91-7.5,8.3-12.89,11.63-14.17
	c-2.36-0.74-4.87-1.14-7.48-1.14c-5.76,0-11.06,1.95-15.29,5.22C11.81,11.22,9.42,14.07,7.74,17.34L7.74,17.34z M40.66,6.16
	c-0.4-0.19-0.8-0.37-1.22-0.54c-2.22-0.64-5.61,2.48-9.07,7.48c-1.27,1.84-2.52,3.95-3.71,6.24c2.05,0.67,4.17,1.45,6.32,2.35
	c2.21,0.92,4.31,1.9,6.28,2.91C41.99,16.02,42.63,8.78,40.66,6.16L40.66,6.16z M6.89,19.17c-0.14,0.34-0.28,0.68-0.4,1.03
	c0.02,0.94,0.52,2.01,1.4,3.16c0.66,0.86,1.54,1.76,2.62,2.69c1.46,1.27,3.27,2.6,5.37,3.92c1.35,0.85,2.82,1.69,4.39,2.52
	c0.69-2.19,1.52-4.46,2.48-6.77c0.84-2.04,1.74-3.99,2.67-5.82c-5.41-1.67-10.34-2.52-13.79-2.41C9.23,17.57,7.54,18.11,6.89,19.17
	L6.89,19.17z M20.27,51.81c0.15,0.06,0.3,0.13,0.45,0.19c2.54,0.51,6.45-3.21,10.28-9.27c0.84-1.33,1.68-2.78,2.5-4.33
	c-2.1-0.68-4.29-1.49-6.51-2.41c-2.11-0.88-4.11-1.81-5.99-2.77c-0.18,0.61-0.35,1.22-0.52,1.82c-0.98,3.61-1.65,6.98-1.85,9.76
	C18.37,48.34,18.86,50.92,20.27,51.81L20.27,51.81z M52.54,39.55c0.22-0.45,0.42-0.92,0.61-1.39c0.16-1.37-0.9-3.11-2.69-4.91
	c-2.46-2.44-6.42-5.13-11.22-7.63c-0.67,2.01-1.45,4.1-2.33,6.24c-0.94,2.27-1.96,4.39-2.98,6.37
	C42.58,40.98,49.86,41.57,52.54,39.55L52.54,39.55z M26.24,20.17c-0.94,1.85-1.84,3.81-2.71,5.84c-0.97,2.34-1.78,4.67-2.45,6.92
	c1.91,0.98,3.95,1.92,6.1,2.82c2.2,0.92,4.37,1.72,6.46,2.39c1.09-2.09,2.15-4.35,3.14-6.73c0.83-2.01,1.57-4,2.2-5.92
	c-1.99-1.03-4.13-2.02-6.36-2.95C30.47,21.63,28.32,20.84,26.24,20.17z"/>
</svg>
