<svg id="Capa_12" data-name="Capa 12" xmlns="http://www.w3.org/2000/svg" viewBox="0 0 403.2 291.2"><defs><style>.cls-1{opacity:0.8;}.cls-2{fill:#fff;}</style></defs><title>10</title><g class="cls-1"><path class="cls-2" d="M60.2,116.8l-20-33.6,85.6-53.6h40V306H119.4V81.2Z" transform="translate(-40.2 -22)"/><path class="cls-2" d="M339.4,313.2q-24,0-43-8.4a80,80,0,0,1-32.2-26.2Q251,260.81,244,233.2t-7-65.6q0-73.2,27-109.4T341,22q48.39,0,75.4,35.4t27,110.2q0,38-7,65.4T416,278.2a82.47,82.47,0,0,1-32.8,26.4Q363.79,313.19,339.4,313.2Zm.4-40q15.6,0,26.2-7.4t17.2-21q6.6-13.59,9.6-33.2a292.49,292.49,0,0,0,3-44,289.61,289.61,0,0,0-3-43.6q-3-19.59-9.6-33.4T366,69.4Q355.4,62,339.8,62t-26.2,7.6Q303,77.21,296.6,91t-9.2,33.2a305.19,305.19,0,0,0-2.8,43.4q0,51.21,12.6,78.4T339.8,273.2Z" transform="translate(-40.2 -22)"/></g></svg>