<svg id="Capa_4" data-name="Capa 4" xmlns="http://www.w3.org/2000/svg" viewBox="0 0 415.6 291.2"><defs><style>.cls-1{opacity:0.8;}.cls-2{fill:#fff;}</style></defs><title>02</title><g class="cls-1"><path class="cls-2" d="M122.6,313.2q-24,0-43-8.4a80,80,0,0,1-32.2-26.2q-13.2-17.79-20.2-45.4t-7-65.6q0-73.2,27-109.4t77-36.2q48.39,0,75.4,35.4t27,110.2q0,38-7,65.4t-20.4,45.2a82.47,82.47,0,0,1-32.8,26.4Q147,313.19,122.6,313.2Zm.4-40q15.6,0,26.2-7.4t17.2-21q6.6-13.59,9.6-33.2a292.49,292.49,0,0,0,3-44,289.61,289.61,0,0,0-3-43.6q-3-19.59-9.6-33.4T149.2,69.4Q138.6,62,123,62T96.8,69.6Q86.2,77.21,79.8,91t-9.2,33.2a305.19,305.19,0,0,0-2.8,43.4q0,51.21,12.6,78.4T123,273.2Z" transform="translate(-20.2 -22)"/><path class="cls-2" d="M244.2,270.4q30.39-26.79,56.2-47.8A588,588,0,0,0,344.8,183q18.6-18.6,29.2-36.4a74.85,74.85,0,0,0,10.6-39q0-21.19-11.8-33.4T340.6,62q-24.81,0-37.2,10.6T285,108.4l-43.6-6a158.88,158.88,0,0,1,10.2-30.6A79.44,79.44,0,0,1,270,46.2q11.79-11,29.2-17.6T341.4,22q44.4,0,67.6,22.6t23.2,60.2q0,23.61-8.6,42.2a153.85,153.85,0,0,1-24.4,36.6,406.84,406.84,0,0,1-38,37.4q-22.2,19.41-49.8,44.6H435.8L430.2,306h-186V270.4Z" transform="translate(-20.2 -22)"/></g></svg>