<svg id="Capa_5" data-name="Capa 5" xmlns="http://www.w3.org/2000/svg" viewBox="0 0 416.4 291.2"><defs><style>.cls-1{opacity:0.8;}.cls-2{fill:#fff;}</style></defs><title>03</title><g class="cls-1"><path class="cls-2" d="M122.6,313.2q-24,0-43-8.4a80,80,0,0,1-32.2-26.2q-13.2-17.79-20.2-45.4t-7-65.6q0-73.2,27-109.4t77-36.2q48.39,0,75.4,35.4t27,110.2q0,38-7,65.4t-20.4,45.2a82.47,82.47,0,0,1-32.8,26.4Q147,313.19,122.6,313.2Zm.4-40q15.6,0,26.2-7.4t17.2-21q6.6-13.59,9.6-33.2a292.49,292.49,0,0,0,3-44,289.61,289.61,0,0,0-3-43.6q-3-19.59-9.6-33.4T149.2,69.4Q138.6,62,123,62T96.8,69.6Q86.2,77.21,79.8,91t-9.2,33.2a305.19,305.19,0,0,0-2.8,43.4q0,51.21,12.6,78.4T123,273.2Z" transform="translate(-20.2 -22)"/><path class="cls-2" d="M285,224q2.79,27.21,15,38.6T339,274q23.6,0,37.2-11.2t13.6-35.6q0-23.59-12.6-34t-37-10.4h-30V142.4h32q34.4,0,39.2-30.4,2.79-8.4,1.6-20-2.4-16-14-23.4t-30-7.4q-24,0-36.2,10.2t-18.2,33l-43.2-6A126.85,126.85,0,0,1,251.2,69a78.92,78.92,0,0,1,18.2-24.4A82.48,82.48,0,0,1,298,28q17-6,41.4-6,23.19,0,40.4,6t28.4,16a62.76,62.76,0,0,1,16.6,23.2,73.25,73.25,0,0,1,5.4,28q0,44-38.4,64,24,10,34.4,27.4a74.58,74.58,0,0,1,10.4,39q0,40.8-24.2,64.2t-72.6,23.4q-28.8,0-48-8t-30.6-20.8a77.66,77.66,0,0,1-16.4-28.8A127.11,127.11,0,0,1,239,224Z" transform="translate(-20.2 -22)"/></g></svg>