<svg id="Capa_6" data-name="Capa 6" xmlns="http://www.w3.org/2000/svg" viewBox="0 0 422.8 291.2"><defs><style>.cls-1{opacity:0.8;}.cls-2{fill:#fff;}</style></defs><title>04</title><g class="cls-1"><path class="cls-2" d="M122.6,313.2q-24,0-43-8.4a80,80,0,0,1-32.2-26.2q-13.2-17.79-20.2-45.4t-7-65.6q0-73.2,27-109.4t77-36.2q48.39,0,75.4,35.4t27,110.2q0,38-7,65.4t-20.4,45.2a82.47,82.47,0,0,1-32.8,26.4Q147,313.19,122.6,313.2Zm.4-40q15.6,0,26.2-7.4t17.2-21q6.6-13.59,9.6-33.2a292.49,292.49,0,0,0,3-44,289.61,289.61,0,0,0-3-43.6q-3-19.59-9.6-33.4T149.2,69.4Q138.6,62,123,62T96.8,69.6Q86.2,77.21,79.8,91t-9.2,33.2a305.19,305.19,0,0,0-2.8,43.4q0,51.21,12.6,78.4T123,273.2Z" transform="translate(-20.2 -22)"/><path class="cls-2" d="M363.8,29.6h42.8V204H443l-5.6,36.8H406.6V306H363V240.8H234.6V208.4ZM363,89.2,281.8,204H363Z" transform="translate(-20.2 -22)"/></g></svg>