<svg id="Capa_7" data-name="Capa 7" xmlns="http://www.w3.org/2000/svg" viewBox="0 0 415.2 291.2"><defs><style>.cls-1{opacity:0.8;}.cls-2{fill:#fff;}</style></defs><title>05</title><g class="cls-1"><path class="cls-2" d="M122.6,313.2q-24,0-43-8.4a80,80,0,0,1-32.2-26.2q-13.2-17.79-20.2-45.4t-7-65.6q0-73.2,27-109.4t77-36.2q48.39,0,75.4,35.4t27,110.2q0,38-7,65.4t-20.4,45.2a82.47,82.47,0,0,1-32.8,26.4Q147,313.19,122.6,313.2Zm.4-40q15.6,0,26.2-7.4t17.2-21q6.6-13.59,9.6-33.2a292.49,292.49,0,0,0,3-44,289.61,289.61,0,0,0-3-43.6q-3-19.59-9.6-33.4T149.2,69.4Q138.6,62,123,62T96.8,69.6Q86.2,77.21,79.8,91t-9.2,33.2a305.19,305.19,0,0,0-2.8,43.4q0,51.21,12.6,78.4T123,273.2Z" transform="translate(-20.2 -22)"/><path class="cls-2" d="M290.6,230.4a79.85,79.85,0,0,0,5,19,38.15,38.15,0,0,0,9.2,13.6,35.86,35.86,0,0,0,14.8,8,79.09,79.09,0,0,0,21.8,2.6q22.8,0,35.8-13.4t13-43.4q0-26-12.2-39.6t-37.4-13.6q-16.8,0-28.8,5.4a66.38,66.38,0,0,0-21.6,15.8H251.4L264.6,29.6H419.4v40H302.2L295.8,142a87.82,87.82,0,0,1,25-11.6,102.44,102.44,0,0,1,28.6-4q23.6,0,40,7.8A75,75,0,0,1,416,154.6a80,80,0,0,1,14.8,28.8,119.1,119.1,0,0,1,4.6,32.6q0,25.2-7,43.4T409,289.6a77.76,77.76,0,0,1-29.4,17.8,112.86,112.86,0,0,1-36.6,5.8q-45.6,0-70-20.2t-27.6-62.6Z" transform="translate(-20.2 -22)"/></g></svg>