<svg id="Capa_8" data-name="Capa 8" xmlns="http://www.w3.org/2000/svg" viewBox="0 0 419.2 291.2"><defs><style>.cls-1{opacity:0.8;}.cls-2{fill:#fff;}</style></defs><title>06</title><g class="cls-1"><path class="cls-2" d="M122.6,313.2q-24,0-43-8.4a80,80,0,0,1-32.2-26.2q-13.2-17.79-20.2-45.4t-7-65.6q0-73.2,27-109.4t77-36.2q48.39,0,75.4,35.4t27,110.2q0,38-7,65.4t-20.4,45.2a82.47,82.47,0,0,1-32.8,26.4Q147,313.19,122.6,313.2Zm.4-40q15.6,0,26.2-7.4t17.2-21q6.6-13.59,9.6-33.2a292.49,292.49,0,0,0,3-44,289.61,289.61,0,0,0-3-43.6q-3-19.59-9.6-33.4T149.2,69.4Q138.6,62,123,62T96.8,69.6Q86.2,77.21,79.8,91t-9.2,33.2a305.19,305.19,0,0,0-2.8,43.4q0,51.21,12.6,78.4T123,273.2Z" transform="translate(-20.2 -22)"/><path class="cls-2" d="M392.2,90.8a125,125,0,0,0-5.4-11.6,32.58,32.58,0,0,0-6.2-8.2,31.05,31.05,0,0,0-8.4-5.6A48.32,48.32,0,0,0,360.6,62a62.1,62.1,0,0,0-18.8-.4q-25.6,2-38.8,26.4t-14.8,69.2a76.48,76.48,0,0,1,29-22.4q16.59-7.2,38.2-7.6,21.19,0,37,6.4A67.72,67.72,0,0,1,418.6,152a79.11,79.11,0,0,1,15.6,28.8,127.14,127.14,0,0,1,5.2,37.6q0,23.21-7.6,41A84.43,84.43,0,0,1,411,289.2a86.93,86.93,0,0,1-30.8,18,117.05,117.05,0,0,1-38,6q-30,0-49-11.6a87.18,87.18,0,0,1-30-30,122.72,122.72,0,0,1-15.2-41,243.64,243.64,0,0,1-4.2-44.6q0-46,8.4-77.4T275,58q14.4-19.2,33.8-27.6A103,103,0,0,1,350.2,22q39.6,0,59.4,16.4t26.2,50.4l-42,6ZM342.2,276q23.19,0,38-14.2T395,219.2q0-24.39-11.4-39.8T345.4,164a66.8,66.8,0,0,0-21.6,3.4A45.71,45.71,0,0,0,306.4,178,48,48,0,0,0,295,195.8q-4,10.6-2.8,25a67.6,67.6,0,0,0,3.2,20.8,52.88,52.88,0,0,0,9.4,17.6,46.09,46.09,0,0,0,15.4,12.2Q329.4,276,342.2,276Z" transform="translate(-20.2 -22)"/></g></svg>