<svg id="Capa_10" data-name="Capa 10" xmlns="http://www.w3.org/2000/svg" viewBox="0 0 423.2 291.2"><defs><style>.cls-1{opacity:0.8;}.cls-2{fill:#fff;}</style></defs><title>08</title><g class="cls-1"><path class="cls-2" d="M122.6,313.2q-24,0-43-8.4a80,80,0,0,1-32.2-26.2q-13.2-17.79-20.2-45.4t-7-65.6q0-73.2,27-109.4t77-36.2q48.39,0,75.4,35.4t27,110.2q0,38-7,65.4t-20.4,45.2a82.47,82.47,0,0,1-32.8,26.4Q147,313.19,122.6,313.2Zm.4-40q15.6,0,26.2-7.4t17.2-21q6.6-13.59,9.6-33.2a292.49,292.49,0,0,0,3-44,289.61,289.61,0,0,0-3-43.6q-3-19.59-9.6-33.4T149.2,69.4Q138.6,62,123,62T96.8,69.6Q86.2,77.21,79.8,91t-9.2,33.2a305.19,305.19,0,0,0-2.8,43.4q0,51.21,12.6,78.4T123,273.2Z" transform="translate(-20.2 -22)"/><path class="cls-2" d="M282.6,164a64,64,0,0,1-28-24.2q-10.41-16.2-10.4-40.2a81.47,81.47,0,0,1,5.6-30.2,63.49,63.49,0,0,1,17.4-24.6Q279,34.41,297,28.2T339.8,22q25.59,0,43.8,6.2T413.4,45a62.36,62.36,0,0,1,16.8,24.8,87.33,87.33,0,0,1,5.2,30.2q0,24-10.4,39.6a65.49,65.49,0,0,1-28,23.6,103.26,103.26,0,0,1,17.2,10,75.79,75.79,0,0,1,15,14.2A65.23,65.23,0,0,1,439.6,206a68.57,68.57,0,0,1,3.8,23.6q0,38-25.8,60.8t-77.8,22.8q-52.41,0-77.6-22.8T237,229.6a64.14,64.14,0,0,1,4-23.2,71.85,71.85,0,0,1,10.4-18.6A73.5,73.5,0,0,1,266,173.6,84.45,84.45,0,0,1,282.6,164Zm-.4,65.6q0,22,13.8,34.6t44.2,12.6q30,0,44.2-13t14.2-35a52.68,52.68,0,0,0-3-18.2,34.62,34.62,0,0,0-9.8-14.2q-6.81-6-18-9.4t-27.6-3.4q-17.2,0-28.4,3.8t-17.8,10a33.25,33.25,0,0,0-9.2,14.6A59,59,0,0,0,282.2,229.6Zm5.2-127.2q0,22.8,12.6,33.4t40.2,10.6q27.6,0,39.6-11.2t12-33.6a54.17,54.17,0,0,0-2.6-16.8,33.88,33.88,0,0,0-8.8-14,45,45,0,0,0-16-9.6q-9.81-3.6-24.2-3.6t-24.6,3.8a45.14,45.14,0,0,0-16.4,10,37.24,37.24,0,0,0-9,14.2A50.46,50.46,0,0,0,287.4,102.4Z" transform="translate(-20.2 -22)"/></g></svg>