<svg id="Capa_11" data-name="Capa 11" xmlns="http://www.w3.org/2000/svg" viewBox="0 0 415.2 291.2"><defs><style>.cls-1{opacity:0.8;}.cls-2{fill:#fff;}</style></defs><title>09</title><g class="cls-1"><path class="cls-2" d="M122.6,313.2q-24,0-43-8.4a80,80,0,0,1-32.2-26.2q-13.2-17.79-20.2-45.4t-7-65.6q0-73.2,27-109.4t77-36.2q48.39,0,75.4,35.4t27,110.2q0,38-7,65.4t-20.4,45.2a82.47,82.47,0,0,1-32.8,26.4Q147,313.19,122.6,313.2Zm.4-40q15.6,0,26.2-7.4t17.2-21q6.6-13.59,9.6-33.2a292.49,292.49,0,0,0,3-44,289.61,289.61,0,0,0-3-43.6q-3-19.59-9.6-33.4T149.2,69.4Q138.6,62,123,62T96.8,69.6Q86.2,77.21,79.8,91t-9.2,33.2a305.19,305.19,0,0,0-2.8,43.4q0,51.21,12.6,78.4T123,273.2Z" transform="translate(-20.2 -22)"/><path class="cls-2" d="M288.6,240.8q3.6,18,13.4,26.2t32.2,8.2q29.6,0,42.8-23.2t13.6-74.4q-24.81,31.2-66.8,31.2-42.81,0-63.8-25t-21-67a104,104,0,0,1,6.8-38.2,84.76,84.76,0,0,1,19.6-30A89.59,89.59,0,0,1,296.2,29q18-7,40.8-7,30,0,49,12.4A92,92,0,0,1,416,66a131.94,131.94,0,0,1,15.2,42.4,251.47,251.47,0,0,1,4.2,44.8q0,43.61-6.4,74t-19,49.6q-12.6,19.2-31.2,27.8t-43.4,8.6q-42.4,0-64.8-17.4t-25.6-55ZM334.2,172a65.24,65.24,0,0,0,20.8-3.2,43.46,43.46,0,0,0,16.8-10.2A47.47,47.47,0,0,0,383,141q4-10.59,4-25a79.67,79.67,0,0,0-3.8-22,58,58,0,0,0-9.6-18.2,43.35,43.35,0,0,0-15.4-12.2A48.65,48.65,0,0,0,337,59.2q-23.61,0-38.2,14.6T284.2,116a87.65,87.65,0,0,0,2.6,21.8,48.69,48.69,0,0,0,8.4,17.8,39.69,39.69,0,0,0,15.4,12Q320.2,172,334.2,172Z" transform="translate(-20.2 -22)"/></g></svg>