
<?xml version="1.0" encoding="utf-8"?>
<svg version="1.1" id="fa-arrow-alt-from-right_white" xmlns="http://www.w3.org/2000/svg" xmlns:xlink="http://www.w3.org/1999/xlink" x="0px" y="0px" viewBox="0 0 448 512" style="enable-background:new 0 0 448 512;" xml:space="preserve">
<style type="text/css">
	.st1{opacity:1.00;fill:#000000;fill-opacity:0.50;}
	.st2{opacity:1.00;fill:#000000;fill-opacity:1.00;}
</style>
<path class="st1" d="M0.037,88l0,336c0,13.3,10.7,24,24,24h24c13.3,0,24-10.7,24-24V88c0-13.3-10.7-24-24-24h-24C10.738,64,0.037,74.7,0.037,88z"/>
<path class="st2" d="M120.037,192h136v-87.7c0-17.8,21.5-26.7,34.1-14.1l152.2,152.1c7.5,7.5,7.5,19.8,0,27.3l-152.2,152.2c-12.6,12.6-34.1,3.7-34.1-14.1V320h-136c-13.3,0-24-10.7-24-24v-80C96.037,202.7,106.738,192,120.037,192z"/>
</svg>