<?xml version="1.0" encoding="utf-8"?>
<svg version="1.1" id="fa-arrow-alt-from-left_white" xmlns="http://www.w3.org/2000/svg" xmlns:xlink="http://www.w3.org/1999/xlink" x="0px" y="0px" viewBox="0 0 448 512" style="enable-background:new 0 0 448 512;" xml:space="preserve">
<style type="text/css">
	.st1{opacity:1.00;fill:#000000;fill-opacity:0.50;}
	.st2{opacity:1.00;fill:#000000;fill-opacity:1.00;}
</style>
<path class="st1" d="M447.962,88v336c0,13.3-10.7,24-24,24h-24c-13.3,0-24-10.7-24-24V88c0-13.3,10.7-24,24-24h24C437.262,64,447.962,74.7,447.962,88z"/>
<path class="st2" d="M327.962,192h-136v-87.7c0-17.8-21.5-26.7-34.1-14.1L5.662,242.3c-7.5,7.5-7.5,19.8,0,27.3l152.2,152.2c12.6,12.6,34.1,3.7,34.1-14.1V320h136c13.3,0,24-10.7,24-24v-80C351.962,202.7,341.262,192,327.962,192z"/>
</svg>