<svg id="Capa_14" data-name="Capa 14" xmlns="http://www.w3.org/2000/svg" viewBox="0 0 381 296.28"><defs><style>.cls-1{opacity:0.8;}.cls-2{fill:#fff;}</style></defs><title>HOME</title><g class="cls-1"><path class="cls-2" d="M198.45,95.58,76.51,196v108.4A10.58,10.58,0,0,0,87.09,315l74.11-.19a10.58,10.58,0,0,0,10.53-10.58V240.92a10.59,10.59,0,0,1,10.59-10.58h42.33a10.58,10.58,0,0,1,10.58,10.58v63.26a10.57,10.57,0,0,0,10.55,10.61h0l74.09.2a10.59,10.59,0,0,0,10.59-10.58V196L208.57,95.58a8.06,8.06,0,0,0-10.12,0Zm192.62,68.27-55.29-45.58V26.66a8,8,0,0,0-7.94-7.94h-37a8,8,0,0,0-7.94,7.94v48L223.65,26a31.74,31.74,0,0,0-40.35,0L15.88,163.85A7.93,7.93,0,0,0,14.82,175h0l16.87,20.5a7.93,7.93,0,0,0,11.17,1.09h0L198.45,68.47a8.06,8.06,0,0,1,10.12,0L364.15,196.61a8,8,0,0,0,11.18-1.06h0l16.86-20.5a7.93,7.93,0,0,0-1.09-11.17l0,0Z" transform="translate(-13 -18.72)"/></g></svg>